<?xml version="1.0" encoding="UTF-8"?>
<svg width="867px" height="385px" viewBox="0 0 867 385" version="1.1" xmlns="http://www.w3.org/2000/svg" xmlns:xlink="http://www.w3.org/1999/xlink">
    <!-- Generator: Sketch 52.2 (67145) - http://www.bohemiancoding.com/sketch -->
    <title>Group 16</title>
    <desc>Created with Sketch.</desc>
    <defs>
        <path d="M25.1508797,183.877668 L200.256411,8.97089449" id="path-1"></path>
        <filter x="-4.3%" y="-5.0%" width="108.1%" height="108.1%" filterUnits="objectBoundingBox" id="filter-2">
            <feMorphology radius="0.5" operator="dilate" in="SourceAlpha" result="shadowSpreadOuter1"></feMorphology>
            <feOffset dx="0" dy="-2" in="shadowSpreadOuter1" result="shadowOffsetOuter1"></feOffset>
            <feMorphology radius="1" operator="erode" in="SourceAlpha" result="shadowInner"></feMorphology>
            <feOffset dx="0" dy="-2" in="shadowInner" result="shadowInner"></feOffset>
            <feComposite in="shadowOffsetOuter1" in2="shadowInner" operator="out" result="shadowOffsetOuter1"></feComposite>
            <feGaussianBlur stdDeviation="2" in="shadowOffsetOuter1" result="shadowBlurOuter1"></feGaussianBlur>
            <feColorMatrix values="0 0 0 0 0   0 0 0 0 0   0 0 0 0 0  0 0 0 0.309301404 0" type="matrix" in="shadowBlurOuter1"></feColorMatrix>
        </filter>
        <path d="M25.1508797,183.877668 L200.256411,8.97089449" id="path-3"></path>
        <filter x="-4.3%" y="-5.0%" width="108.1%" height="108.1%" filterUnits="objectBoundingBox" id="filter-4">
            <feMorphology radius="0.5" operator="dilate" in="SourceAlpha" result="shadowSpreadOuter1"></feMorphology>
            <feOffset dx="0" dy="-2" in="shadowSpreadOuter1" result="shadowOffsetOuter1"></feOffset>
            <feMorphology radius="1" operator="erode" in="SourceAlpha" result="shadowInner"></feMorphology>
            <feOffset dx="0" dy="-2" in="shadowInner" result="shadowInner"></feOffset>
            <feComposite in="shadowOffsetOuter1" in2="shadowInner" operator="out" result="shadowOffsetOuter1"></feComposite>
            <feGaussianBlur stdDeviation="2" in="shadowOffsetOuter1" result="shadowBlurOuter1"></feGaussianBlur>
            <feColorMatrix values="0 0 0 0 0   0 0 0 0 0   0 0 0 0 0  0 0 0 0.309301404 0" type="matrix" in="shadowBlurOuter1"></feColorMatrix>
        </filter>
    </defs>
    <g id="Page-1" stroke="none" stroke-width="1" fill="none" fill-rule="evenodd">
        <g id="Desktop-Copy" transform="translate(-159.000000, -92.000000)">
            <g id="Group-16" transform="translate(159.000000, 92.000000)">
                <path d="M148.126709,107.151367 L148.126709,108.772949 C142.62915,109.010254 141.561279,109.84082 141.561279,115.733887 L141.561279,155.91748 C141.561279,161.810547 142.62915,162.641113 148.126709,162.878418 L148.126709,164.5 C145.595459,164.341797 141.561279,164.262695 137.843506,164.262695 C133.611572,164.262695 129.735596,164.341797 127.481201,164.5 L127.481201,162.878418 C132.97876,162.641113 134.00708,161.810547 134.00708,155.91748 L134.00708,112.569824 L114.508545,164.895508 L113.203369,164.895508 L92.795166,112.33252 L92.795166,155.086914 C92.795166,161.019531 93.8630371,162.641113 100.151611,162.878418 L100.151611,164.5 C98.213623,164.341797 94.6540527,164.262695 91.885498,164.262695 C89.1564941,164.262695 86.1506348,164.341797 84.3708496,164.5 L84.3708496,162.878418 C89.8684082,162.641113 90.9362793,161.019531 90.9362793,155.086914 L90.9362793,115.733887 C90.9362793,109.84082 89.8684082,109.010254 84.3708496,108.772949 L84.3708496,107.151367 C86.1506348,107.30957 89.1564941,107.388672 91.885498,107.388672 C94.2585449,107.388672 97.0270996,107.30957 98.8068848,107.151367 L116.604736,154.137695 L134.00708,107.388672 L137.843506,107.388672 C141.561279,107.388672 145.595459,107.30957 148.126709,107.151367 Z M172.752686,121.666504 C183.035889,121.666504 191.143799,128.113281 191.143799,143.696289 C191.143799,159.239746 183.035889,165.646973 172.752686,165.646973 C162.469482,165.646973 154.361572,159.239746 154.361572,143.696289 C154.361572,128.113281 162.469482,121.666504 172.752686,121.666504 Z M172.752686,123.288086 C166.622314,123.288086 162.232178,129.181152 162.232178,143.696289 C162.232178,158.171875 166.622314,164.025391 172.752686,164.025391 C178.922607,164.025391 183.273193,158.171875 183.273193,143.696289 C183.273193,129.181152 178.922607,123.288086 172.752686,123.288086 Z M222.968018,121.666504 C227.358154,121.666504 230.364014,124.553711 230.364014,128.03418 C230.364014,130.802734 228.584229,133.13623 225.736572,133.13623 C223.482178,133.13623 221.425537,131.633301 221.425537,128.943848 C221.425537,126.926758 222.730713,125.463379 224.194092,124.553711 C223.798584,124 223.205322,123.762695 222.493408,123.762695 C215.690674,123.762695 211.221436,132.978027 211.221436,138.989746 L211.221436,156.154785 C211.221436,161.415039 214.4646,162.799316 219.803955,162.799316 L219.803955,164.5 C217.312256,164.420898 212.368408,164.183594 207.345459,164.183594 C203.627686,164.183594 199.633057,164.420898 197.77417,164.5 L197.77417,162.799316 C202.243408,162.799316 203.944092,161.494141 203.944092,156.985352 L203.944092,131.633301 C203.944092,126.768555 202.480713,124.474609 197.77417,124.474609 L197.77417,122.773926 C199.474854,122.932129 201.175537,123.01123 202.797119,123.01123 C205.961182,123.01123 208.887939,122.694824 211.221436,121.903809 L211.221436,132.028809 C212.922119,127.322266 217.312256,121.666504 222.968018,121.666504 Z M259.498779,121.666504 C263.888916,121.666504 266.894775,124.553711 266.894775,128.03418 C266.894775,130.802734 265.11499,133.13623 262.267334,133.13623 C260.012939,133.13623 257.956299,131.633301 257.956299,128.943848 C257.956299,126.926758 259.261475,125.463379 260.724854,124.553711 C260.329346,124 259.736084,123.762695 259.02417,123.762695 C252.221436,123.762695 247.752197,132.978027 247.752197,138.989746 L247.752197,156.154785 C247.752197,161.415039 250.995361,162.799316 256.334717,162.799316 L256.334717,164.5 C253.843018,164.420898 248.89917,164.183594 243.876221,164.183594 C240.158447,164.183594 236.163818,164.420898 234.304932,164.5 L234.304932,162.799316 C238.77417,162.799316 240.474854,161.494141 240.474854,156.985352 L240.474854,131.633301 C240.474854,126.768555 239.011475,124.474609 234.304932,124.474609 L234.304932,122.773926 C236.005615,122.932129 237.706299,123.01123 239.327881,123.01123 C242.491943,123.01123 245.418701,122.694824 247.752197,121.903809 L247.752197,132.028809 C249.452881,127.322266 253.843018,121.666504 259.498779,121.666504 Z M280.090576,102.523926 C282.898682,102.523926 285.271729,104.896973 285.271729,107.705078 C285.271729,110.552734 282.898682,112.88623 280.090576,112.88623 C277.24292,112.88623 274.909424,110.552734 274.909424,107.705078 C274.909424,104.896973 277.24292,102.523926 280.090576,102.523926 Z M284.282959,121.903809 L284.282959,156.985352 C284.282959,161.494141 285.983643,162.799316 290.452881,162.799316 L290.452881,164.5 C288.593994,164.420898 284.362061,164.183594 280.644287,164.183594 C276.926514,164.183594 272.69458,164.420898 270.835693,164.5 L270.835693,162.799316 C275.304932,162.799316 277.005615,161.494141 277.005615,156.985352 L277.005615,131.633301 C277.005615,126.768555 275.542236,124.474609 270.835693,124.474609 L270.835693,122.773926 C272.536377,122.932129 274.237061,123.01123 275.858643,123.01123 C279.022705,123.01123 281.949463,122.694824 284.282959,121.903809 Z M309.502197,121.666504 C313.773682,121.666504 316.858643,123.446289 318.322021,124.632812 C318.875732,125.067871 319.350342,125.305176 319.74585,125.305176 C320.695068,125.305176 321.28833,124.158203 321.565186,121.745605 L323.424072,121.745605 C323.186768,124.711914 323.107666,128.54834 323.107666,135.509277 L321.248779,135.509277 C320.26001,129.497559 317.531006,123.208984 310.214111,123.208984 C306.417236,123.208984 303.56958,125.384277 303.56958,129.418457 C303.56958,134.283203 308.434326,136.537598 313.971436,140.136719 C320.101807,144.091797 325.045654,147.651367 325.045654,154.295898 C325.045654,161.731445 318.559326,165.646973 311.202881,165.646973 C308.869385,165.646973 306.733643,165.291016 304.795654,164.5 C303.648682,163.946289 302.54126,163.194824 301.473389,162.324707 C301.236084,162.087402 300.959229,162.008301 300.721924,162.008301 C300.01001,162.008301 299.377197,163.036621 299.060791,165.053711 L297.201904,165.053711 C297.439209,161.573242 297.518311,157.064453 297.518311,148.877441 L299.377197,148.877441 C300.445068,157.93457 302.54126,164.025391 310.64917,164.025391 C313.892334,164.025391 317.847412,162.087402 317.847412,156.312988 C317.847412,151.606445 313.971436,149.035645 308.671631,145.713379 C302.778564,141.995605 297.518311,138.831543 297.518311,132.10791 C297.518311,124.909668 303.094971,121.666504 309.502197,121.666504 Z M351.530518,121.666504 C361.813721,121.666504 369.921631,128.113281 369.921631,143.696289 C369.921631,159.239746 361.813721,165.646973 351.530518,165.646973 C341.247314,165.646973 333.139404,159.239746 333.139404,143.696289 C333.139404,128.113281 341.247314,121.666504 351.530518,121.666504 Z M351.530518,123.288086 C345.400146,123.288086 341.01001,129.181152 341.01001,143.696289 C341.01001,158.171875 345.400146,164.025391 351.530518,164.025391 C357.700439,164.025391 362.051025,158.171875 362.051025,143.696289 C362.051025,129.181152 357.700439,123.288086 351.530518,123.288086 Z M403.80249,121.666504 C407.915771,121.666504 410.526123,122.773926 412.38501,124.711914 C414.4021,126.926758 415.193115,129.813965 415.193115,135.351074 L415.193115,156.985352 C415.193115,161.494141 416.893799,162.799316 421.363037,162.799316 L421.363037,164.5 C419.50415,164.420898 415.193115,164.183594 411.633545,164.183594 C408.073975,164.183594 404.2771,164.420898 402.576416,164.5 L402.576416,162.799316 C406.452393,162.799316 407.915771,161.494141 407.915771,156.985352 L407.915771,133.571289 C407.915771,128.54834 407.203857,124.237305 401.350342,124.237305 C394.547607,124.237305 389.999268,130.723633 389.999268,138.989746 L389.999268,156.985352 C389.999268,161.494141 391.462646,162.799316 395.378174,162.799316 L395.378174,164.5 C393.67749,164.420898 389.841064,164.183594 386.281494,164.183594 C382.721924,164.183594 378.410889,164.420898 376.552002,164.5 L376.552002,162.799316 C381.02124,162.799316 382.721924,161.494141 382.721924,156.985352 L382.721924,131.633301 C382.721924,126.768555 381.258545,124.474609 376.552002,124.474609 L376.552002,122.773926 C378.252686,122.932129 379.953369,123.01123 381.574951,123.01123 C384.739014,123.01123 387.665771,122.694824 389.999268,121.903809 L389.999268,131.435547 C392.846924,124.158203 398.265381,121.666504 403.80249,121.666504 Z M498.102783,106.004395 C504.747314,106.004395 509.928467,110.078125 509.928467,116.959961 C509.928467,122.45752 506.5271,126.175293 502.255615,128.311035 C499.684814,129.537109 494.938721,131.07959 490.232178,132.542969 C496.560303,135.192871 499.091553,140.413574 499.091553,146.26709 C499.091553,156.075684 489.994873,165.646973 474.372314,165.646973 C460.371338,165.646973 448.150146,157.93457 448.150146,145.476074 C448.150146,133.729492 458.987061,129.260254 463.100342,128.192383 C457.681885,125.858887 454.952881,121.745605 454.952881,117.750977 C454.952881,112.490723 459.619873,107.625977 468.637451,107.625977 C472.750732,107.625977 475.361084,108.693848 477.061768,110.078125 C479.157959,111.778809 480.067627,113.954102 480.067627,115.654785 C480.067627,118.344238 477.773682,119.96582 475.519287,119.96582 C473.343994,119.96582 471.287354,118.502441 471.287354,115.89209 C471.287354,113.558594 473.067139,111.699707 475.598389,111.462402 C475.123779,110.078125 472.750732,108.852051 469.428467,108.852051 C463.930908,108.852051 460.054932,112.253418 460.054932,118.502441 C460.054932,121.508301 460.925049,124.711914 464.168213,127.717773 C466.0271,127.401367 468.202393,127.243164 469.191162,127.243164 C471.12915,127.243164 472.434326,127.875977 472.434326,129.102051 C472.434326,130.09082 471.524658,130.644531 470.179932,130.644531 C468.123291,130.644531 465.55249,129.418457 464.247314,128.864746 C457.998291,130.723633 453.726807,134.599609 453.726807,142.153809 C453.726807,153.307129 463.298096,159.635254 475.440186,159.635254 C486.870361,159.635254 496.718506,154.058594 496.718506,144.803711 C496.718506,141.916504 495.729736,135.944336 488.571045,133.057129 C484.892822,134.204102 481.412354,135.311523 479.237061,136.14209 C475.202881,137.68457 472.11792,139.70166 472.11792,143.182129 C472.11792,147.414062 476.468506,149.668457 479.553467,149.668457 C481.016846,149.668457 484.101807,149.114746 484.418213,147.888672 C482.717529,147.572266 480.621338,146.504395 480.621338,143.775391 C480.621338,141.165039 482.559326,139.543457 485.051025,139.543457 C487.661377,139.543457 489.362061,141.323242 489.362061,143.933594 C489.362061,148.561035 484.022705,150.894531 479.71167,150.894531 C475.123779,150.894531 469.665771,148.125977 469.665771,141.402344 C469.665771,135.825684 473.502197,132.10791 480.858643,129.57666 C485.723389,127.955078 494.622314,125.937988 500.634033,123.208984 C506.05249,120.677734 507.594971,118.186035 507.594971,115.41748 C507.594971,110.790039 503.204834,107.230469 498.181885,107.230469 C496.876709,107.230469 496.006592,107.467773 495.769287,107.942383 C497.232666,108.693848 498.023682,110.31543 498.023682,111.699707 C498.023682,113.954102 495.92749,115.654785 493.475342,115.654785 C491.37915,115.654785 489.203857,114.349609 489.203857,111.620605 C489.203857,107.388672 494.226807,106.004395 498.102783,106.004395 Z M576.543213,107.151367 C576.147705,111.264648 575.989502,115.496582 575.989502,117.513672 C575.989502,120.124023 576.068604,122.45752 576.226807,124.158203 L574.36792,124.158203 C573.220947,112.88623 571.994873,109.010254 561.869873,109.010254 L556.767822,109.010254 C551.270264,109.010254 550.202393,109.84082 550.202393,115.733887 L550.202393,135.66748 L556.13501,135.66748 C563.175049,135.66748 563.016846,128.864746 563.649658,124.98877 L565.508545,124.98877 C565.27124,128.390137 565.231689,130.723633 565.231689,132.62207 C565.231689,134.085449 565.27124,135.271973 565.27124,136.458496 C565.27124,139.147949 565.350342,141.837402 565.7854,147.967773 L563.886963,147.967773 C563.25415,142.786621 563.175049,137.289062 556.13501,137.289062 L550.202393,137.289062 L550.202393,155.91748 C550.202393,161.810547 551.58667,162.641113 558.389404,162.878418 L558.389404,164.5 C555.581299,164.341797 550.874756,164.262695 546.484619,164.262695 C542.292236,164.262695 538.376709,164.341797 536.122314,164.5 L536.122314,162.878418 C541.619873,162.641113 542.687744,161.810547 542.687744,155.91748 L542.687744,115.733887 C542.687744,109.84082 541.619873,109.010254 536.122314,108.772949 L536.122314,107.151367 C544.072021,107.388672 554.750732,107.388672 559.615479,107.388672 C564.559326,107.388672 571.520264,107.388672 576.543213,107.151367 Z M599.547607,121.666504 C609.830811,121.666504 617.938721,128.113281 617.938721,143.696289 C617.938721,159.239746 609.830811,165.646973 599.547607,165.646973 C589.264404,165.646973 581.156494,159.239746 581.156494,143.696289 C581.156494,128.113281 589.264404,121.666504 599.547607,121.666504 Z M599.547607,123.288086 C593.417236,123.288086 589.0271,129.181152 589.0271,143.696289 C589.0271,158.171875 593.417236,164.025391 599.547607,164.025391 C605.717529,164.025391 610.068115,158.171875 610.068115,143.696289 C610.068115,129.181152 605.717529,123.288086 599.547607,123.288086 Z M658.108154,154.137695 L659.729736,154.770508 C657.949951,160.188965 652.610596,165.646973 644.581787,165.646973 C632.835205,165.646973 625.953369,157.064453 625.953369,144.645508 C625.953369,130.407227 633.151611,121.666504 644.265381,121.666504 C653.757568,121.666504 659.41333,127.243164 659.41333,139.464355 L634.10083,139.464355 C633.903076,141.006836 633.823975,142.865723 633.823975,144.645508 C633.823975,155.759277 639.993896,162.245605 646.203369,162.245605 C651.068115,162.245605 655.300049,160.188965 658.108154,154.137695 Z M643.948975,123.208984 C639.123779,123.208984 634.852295,127.717773 633.982178,137.921875 L651.621826,137.921875 C651.898682,130.011719 649.367432,123.208984 643.948975,123.208984 Z M691.237549,121.666504 C695.627686,121.666504 698.633545,124.553711 698.633545,128.03418 C698.633545,130.802734 696.85376,133.13623 694.006104,133.13623 C691.751709,133.13623 689.695068,131.633301 689.695068,128.943848 C689.695068,126.926758 691.000244,125.463379 692.463623,124.553711 C692.068115,124 691.474854,123.762695 690.762939,123.762695 C683.960205,123.762695 679.490967,132.978027 679.490967,138.989746 L679.490967,156.154785 C679.490967,161.415039 682.734131,162.799316 688.073486,162.799316 L688.073486,164.5 C685.581787,164.420898 680.637939,164.183594 675.61499,164.183594 C671.897217,164.183594 667.902588,164.420898 666.043701,164.5 L666.043701,162.799316 C670.512939,162.799316 672.213623,161.494141 672.213623,156.985352 L672.213623,131.633301 C672.213623,126.768555 670.750244,124.474609 666.043701,124.474609 L666.043701,122.773926 C667.744385,122.932129 669.445068,123.01123 671.06665,123.01123 C674.230713,123.01123 677.157471,122.694824 679.490967,121.903809 L679.490967,132.028809 C681.19165,127.322266 685.581787,121.666504 691.237549,121.666504 Z M717.010498,121.666504 C721.281982,121.666504 724.366943,123.446289 725.830322,124.632812 C726.384033,125.067871 726.858643,125.305176 727.25415,125.305176 C728.203369,125.305176 728.796631,124.158203 729.073486,121.745605 L730.932373,121.745605 C730.695068,124.711914 730.615967,128.54834 730.615967,135.509277 L728.75708,135.509277 C727.768311,129.497559 725.039307,123.208984 717.722412,123.208984 C713.925537,123.208984 711.077881,125.384277 711.077881,129.418457 C711.077881,134.283203 715.942627,136.537598 721.479736,140.136719 C727.610107,144.091797 732.553955,147.651367 732.553955,154.295898 C732.553955,161.731445 726.067627,165.646973 718.711182,165.646973 C716.377686,165.646973 714.241943,165.291016 712.303955,164.5 C711.156982,163.946289 710.049561,163.194824 708.981689,162.324707 C708.744385,162.087402 708.467529,162.008301 708.230225,162.008301 C707.518311,162.008301 706.885498,163.036621 706.569092,165.053711 L704.710205,165.053711 C704.94751,161.573242 705.026611,157.064453 705.026611,148.877441 L706.885498,148.877441 C707.953369,157.93457 710.049561,164.025391 718.157471,164.025391 C721.400635,164.025391 725.355713,162.087402 725.355713,156.312988 C725.355713,151.606445 721.479736,149.035645 716.179932,145.713379 C710.286865,141.995605 705.026611,138.831543 705.026611,132.10791 C705.026611,124.909668 710.603271,121.666504 717.010498,121.666504 Z M752.236084,122.853027 L764.219971,122.853027 L764.219971,124.474609 L752.236084,124.474609 L752.236084,155.838379 C752.236084,160.94043 754.174072,162.720215 757.417236,162.720215 C760.6604,162.720215 763.033447,160.386719 764.734131,154.058594 L766.316162,154.454102 C765.20874,160.782227 762.361084,165.646973 755.795654,165.646973 C752.077881,165.646973 749.902588,164.737305 748.122803,162.95752 C745.749756,160.544922 744.95874,157.380859 744.95874,151.606445 L744.95874,124.474609 L737.167236,124.474609 L737.167236,122.853027 L744.95874,122.853027 L744.95874,110.473633 C747.608643,110.394531 750.218994,110.078125 752.236084,109.32666 L752.236084,122.853027 Z M801.897705,154.137695 L803.519287,154.770508 C801.739502,160.188965 796.400146,165.646973 788.371338,165.646973 C776.624756,165.646973 769.74292,157.064453 769.74292,144.645508 C769.74292,130.407227 776.941162,121.666504 788.054932,121.666504 C797.547119,121.666504 803.202881,127.243164 803.202881,139.464355 L777.890381,139.464355 C777.692627,141.006836 777.613525,142.865723 777.613525,144.645508 C777.613525,155.759277 783.783447,162.245605 789.99292,162.245605 C794.857666,162.245605 799.0896,160.188965 801.897705,154.137695 Z M787.738525,123.208984 C782.91333,123.208984 778.641846,127.717773 777.771729,137.921875 L795.411377,137.921875 C795.688232,130.011719 793.156982,123.208984 787.738525,123.208984 Z M835.0271,121.666504 C839.417236,121.666504 842.423096,124.553711 842.423096,128.03418 C842.423096,130.802734 840.643311,133.13623 837.795654,133.13623 C835.54126,133.13623 833.484619,131.633301 833.484619,128.943848 C833.484619,126.926758 834.789795,125.463379 836.253174,124.553711 C835.857666,124 835.264404,123.762695 834.55249,123.762695 C827.749756,123.762695 823.280518,132.978027 823.280518,138.989746 L823.280518,156.154785 C823.280518,161.415039 826.523682,162.799316 831.863037,162.799316 L831.863037,164.5 C829.371338,164.420898 824.42749,164.183594 819.404541,164.183594 C815.686768,164.183594 811.692139,164.420898 809.833252,164.5 L809.833252,162.799316 C814.30249,162.799316 816.003174,161.494141 816.003174,156.985352 L816.003174,131.633301 C816.003174,126.768555 814.539795,124.474609 809.833252,124.474609 L809.833252,122.773926 C811.533936,122.932129 813.234619,123.01123 814.856201,123.01123 C818.020264,123.01123 820.947021,122.694824 823.280518,121.903809 L823.280518,132.028809 C824.981201,127.322266 829.371338,121.666504 835.0271,121.666504 Z M208.334229,215.388672 C211.102783,215.388672 212.803467,215.30957 214.425049,215.151367 L214.425049,216.772949 C212.289307,217.247559 209.560303,218.869141 208.017822,223.812988 L192.71167,272.895508 L191.406494,272.895508 L177.326416,231.169434 L164.432861,272.895508 L163.127686,272.895508 L145.962646,221.954102 C144.499268,217.761719 142.08667,216.852051 140.385986,216.772949 L140.385986,215.151367 C142.561279,215.30957 145.962646,215.388672 149.047607,215.388672 C152.607178,215.388672 155.850342,215.30957 157.78833,215.151367 L157.78833,216.772949 C154.980225,216.970703 153.833252,217.722168 153.833252,219.581055 C153.833252,220.569824 154.149658,221.875 154.703369,223.575684 L166.568604,259.685547 L176.377197,228.321777 L174.241455,221.954102 C172.857178,217.761719 170.919189,216.852051 169.455811,216.772949 L169.455811,215.151367 C171.393799,215.30957 174.557861,215.388672 177.326416,215.388672 C181.518799,215.388672 185.394775,215.30957 187.688721,215.151367 L187.688721,216.772949 C184.0896,216.931152 182.151611,217.168457 182.151611,219.660156 C182.151611,220.609375 182.428467,221.875 182.982178,223.575684 L194.610107,259.606445 L204.616455,228.282227 C205.486572,225.553223 205.921631,223.41748 205.921631,221.756348 C205.921631,218.078125 203.706787,216.891602 199.000244,216.772949 L199.000244,215.151367 C202.085205,215.30957 205.486572,215.388672 208.334229,215.388672 Z M245.023193,262.137695 L246.644775,262.770508 C244.86499,268.188965 239.525635,273.646973 231.496826,273.646973 C219.750244,273.646973 212.868408,265.064453 212.868408,252.645508 C212.868408,238.407227 220.06665,229.666504 231.18042,229.666504 C240.672607,229.666504 246.328369,235.243164 246.328369,247.464355 L221.015869,247.464355 C220.818115,249.006836 220.739014,250.865723 220.739014,252.645508 C220.739014,263.759277 226.908936,270.245605 233.118408,270.245605 C237.983154,270.245605 242.215088,268.188965 245.023193,262.137695 Z M230.864014,231.208984 C226.038818,231.208984 221.767334,235.717773 220.897217,245.921875 L238.536865,245.921875 C238.813721,238.011719 236.282471,231.208984 230.864014,231.208984 Z M277.045166,229.666504 C285.86499,229.666504 292.43042,236.943848 292.43042,251.696289 C292.43042,266.250977 284.085205,273.646973 274.355713,273.646973 C270.479736,273.646973 266.524658,272.064941 263.677002,268.900879 L257.902588,273.805176 L256.557861,273.211914 C256.953369,271.788086 257.111572,270.166504 257.111572,268.544922 L257.111572,218.790039 C257.111572,213.925293 255.648193,211.670898 250.94165,211.670898 L250.94165,209.970215 C252.642334,210.128418 254.343018,210.20752 255.9646,210.20752 C259.128662,210.20752 262.05542,209.891113 264.388916,209.060547 L264.388916,238.328125 C266.801514,232.791016 271.508057,229.666504 277.045166,229.666504 Z M273.7229,271.788086 C280.921143,271.788086 284.559814,265.459961 284.559814,251.696289 C284.559814,238.56543 281.395752,232.079102 274.672119,232.079102 C270.361084,232.079102 266.050049,235.52002 264.388916,242.164551 L264.388916,267.753906 C266.999268,270.443359 270.361084,271.788086 273.7229,271.788086 Z M313.496826,229.666504 C317.768311,229.666504 320.853271,231.446289 322.31665,232.632812 C322.870361,233.067871 323.344971,233.305176 323.740479,233.305176 C324.689697,233.305176 325.282959,232.158203 325.559814,229.745605 L327.418701,229.745605 C327.181396,232.711914 327.102295,236.54834 327.102295,243.509277 L325.243408,243.509277 C324.254639,237.497559 321.525635,231.208984 314.20874,231.208984 C310.411865,231.208984 307.564209,233.384277 307.564209,237.418457 C307.564209,242.283203 312.428955,244.537598 317.966064,248.136719 C324.096436,252.091797 329.040283,255.651367 329.040283,262.295898 C329.040283,269.731445 322.553955,273.646973 315.19751,273.646973 C312.864014,273.646973 310.728271,273.291016 308.790283,272.5 C307.643311,271.946289 306.535889,271.194824 305.468018,270.324707 C305.230713,270.087402 304.953857,270.008301 304.716553,270.008301 C304.004639,270.008301 303.371826,271.036621 303.05542,273.053711 L301.196533,273.053711 C301.433838,269.573242 301.512939,265.064453 301.512939,256.877441 L303.371826,256.877441 C304.439697,265.93457 306.535889,272.025391 314.643799,272.025391 C317.886963,272.025391 321.842041,270.087402 321.842041,264.312988 C321.842041,259.606445 317.966064,257.035645 312.66626,253.713379 C306.773193,249.995605 301.512939,246.831543 301.512939,240.10791 C301.512939,232.909668 307.0896,229.666504 313.496826,229.666504 Z M344.925537,210.523926 C347.733643,210.523926 350.106689,212.896973 350.106689,215.705078 C350.106689,218.552734 347.733643,220.88623 344.925537,220.88623 C342.077881,220.88623 339.744385,218.552734 339.744385,215.705078 C339.744385,212.896973 342.077881,210.523926 344.925537,210.523926 Z M349.11792,229.903809 L349.11792,264.985352 C349.11792,269.494141 350.818604,270.799316 355.287842,270.799316 L355.287842,272.5 C353.428955,272.420898 349.197021,272.183594 345.479248,272.183594 C341.761475,272.183594 337.529541,272.420898 335.670654,272.5 L335.670654,270.799316 C340.139893,270.799316 341.840576,269.494141 341.840576,264.985352 L341.840576,239.633301 C341.840576,234.768555 340.377197,232.474609 335.670654,232.474609 L335.670654,230.773926 C337.371338,230.932129 339.072021,231.01123 340.693604,231.01123 C343.857666,231.01123 346.784424,230.694824 349.11792,229.903809 Z M372.952881,230.853027 L384.936768,230.853027 L384.936768,232.474609 L372.952881,232.474609 L372.952881,263.838379 C372.952881,268.94043 374.890869,270.720215 378.134033,270.720215 C381.377197,270.720215 383.750244,268.386719 385.450928,262.058594 L387.032959,262.454102 C385.925537,268.782227 383.077881,273.646973 376.512451,273.646973 C372.794678,273.646973 370.619385,272.737305 368.8396,270.95752 C366.466553,268.544922 365.675537,265.380859 365.675537,259.606445 L365.675537,232.474609 L357.884033,232.474609 L357.884033,230.853027 L365.675537,230.853027 L365.675537,218.473633 C368.325439,218.394531 370.935791,218.078125 372.952881,217.32666 L372.952881,230.853027 Z M422.614502,262.137695 L424.236084,262.770508 C422.456299,268.188965 417.116943,273.646973 409.088135,273.646973 C397.341553,273.646973 390.459717,265.064453 390.459717,252.645508 C390.459717,238.407227 397.657959,229.666504 408.771729,229.666504 C418.263916,229.666504 423.919678,235.243164 423.919678,247.464355 L398.607178,247.464355 C398.409424,249.006836 398.330322,250.865723 398.330322,252.645508 C398.330322,263.759277 404.500244,270.245605 410.709717,270.245605 C415.574463,270.245605 419.806396,268.188965 422.614502,262.137695 Z M408.455322,231.208984 C403.630127,231.208984 399.358643,235.717773 398.488525,245.921875 L416.128174,245.921875 C416.405029,238.011719 413.873779,231.208984 408.455322,231.208984 Z M501.134033,267.556152 L502.360107,268.46582 C500.066162,271.788086 498.049072,273.646973 493.698486,273.646973 C489.624756,273.646973 486.539795,271.788086 484.997314,264.866699 L483.217529,256.79834 C481.675049,249.916504 480.488525,245.289062 474.081299,245.289062 L466.368896,245.289062 L466.368896,263.91748 C466.368896,269.810547 467.436768,270.641113 472.934326,270.878418 L472.934326,272.5 C470.442627,272.341797 466.368896,272.262695 462.651123,272.262695 C458.45874,272.262695 454.543213,272.341797 452.288818,272.5 L452.288818,270.878418 C457.786377,270.641113 458.854248,269.810547 458.854248,263.91748 L458.854248,223.733887 C458.854248,217.84082 457.786377,217.010254 452.288818,216.772949 L452.288818,215.151367 C454.543213,215.30957 458.616943,215.388672 462.176514,215.388672 C467.278564,215.388672 472.459717,215.230469 474.397705,215.230469 C487.449463,215.230469 493.935791,221.400391 493.935791,229.310547 C493.935791,234.926758 490.415771,242.995117 478.19458,244.893555 L479.18335,245.051758 C486.381592,246.238281 488.991943,249.006836 490.534424,255.730469 L492.551514,263.996582 C493.540283,268.703125 494.449951,270.641113 496.704346,270.641113 C498.681885,270.641113 499.631104,269.45459 501.134033,267.556152 Z M472.380615,216.772949 C467.436768,216.772949 466.368896,218.157227 466.368896,223.733887 L466.368896,243.66748 L471.826904,243.66748 C483.296631,243.66748 485.827881,237.655762 485.827881,230.220215 C485.827881,221.716797 482.189209,216.772949 472.380615,216.772949 Z M537.743896,262.137695 L539.365479,262.770508 C537.585693,268.188965 532.246338,273.646973 524.217529,273.646973 C512.470947,273.646973 505.589111,265.064453 505.589111,252.645508 C505.589111,238.407227 512.787354,229.666504 523.901123,229.666504 C533.393311,229.666504 539.049072,235.243164 539.049072,247.464355 L513.736572,247.464355 C513.538818,249.006836 513.459717,250.865723 513.459717,252.645508 C513.459717,263.759277 519.629639,270.245605 525.839111,270.245605 C530.703857,270.245605 534.935791,268.188965 537.743896,262.137695 Z M523.584717,231.208984 C518.759521,231.208984 514.488037,235.717773 513.61792,245.921875 L531.257568,245.921875 C531.534424,238.011719 529.003174,231.208984 523.584717,231.208984 Z M582.540771,208.981445 L582.540771,263.680176 C582.540771,268.544922 584.00415,270.799316 588.710693,270.799316 L588.710693,272.5 C587.01001,272.341797 585.309326,272.262695 583.687744,272.262695 C580.523682,272.262695 577.596924,272.579102 575.263428,273.409668 L575.263428,266.211426 C573.285889,271.036621 569.370361,273.646973 563.75415,273.646973 C553.62915,273.646973 547.142822,266.40918 547.221924,251.696289 C547.142822,236.943848 555.804443,229.666504 565.533936,229.666504 C569.370361,229.666504 573.167236,231.01123 575.263428,234.452148 L575.263428,218.710938 C575.263428,213.846191 573.800049,211.591797 569.093506,211.591797 L569.093506,209.891113 C570.794189,210.049316 572.494873,210.128418 574.116455,210.128418 C577.280518,210.128418 580.207275,209.812012 582.540771,208.981445 Z M566.087646,271.194824 C570.161377,271.194824 573.997803,267.991211 575.263428,261.86084 L575.263428,237.774414 C573.681396,233.384277 570.398682,231.525391 566.206299,231.525391 C559.799072,231.525391 555.013428,238.011719 555.092529,251.696289 C555.013428,264.787598 558.889404,271.194824 566.087646,271.194824 Z M626.783936,262.137695 L628.405518,262.770508 C626.625732,268.188965 621.286377,273.646973 613.257568,273.646973 C601.510986,273.646973 594.62915,265.064453 594.62915,252.645508 C594.62915,238.407227 601.827393,229.666504 612.941162,229.666504 C622.43335,229.666504 628.089111,235.243164 628.089111,247.464355 L602.776611,247.464355 C602.578857,249.006836 602.499756,250.865723 602.499756,252.645508 C602.499756,263.759277 608.669678,270.245605 614.87915,270.245605 C619.743896,270.245605 623.97583,268.188965 626.783936,262.137695 Z M612.624756,231.208984 C607.799561,231.208984 603.528076,235.717773 602.657959,245.921875 L620.297607,245.921875 C620.574463,238.011719 618.043213,231.208984 612.624756,231.208984 Z M649.155518,229.666504 C653.427002,229.666504 656.511963,231.446289 657.975342,232.632812 C658.529053,233.067871 659.003662,233.305176 659.39917,233.305176 C660.348389,233.305176 660.94165,232.158203 661.218506,229.745605 L663.077393,229.745605 C662.840088,232.711914 662.760986,236.54834 662.760986,243.509277 L660.9021,243.509277 C659.91333,237.497559 657.184326,231.208984 649.867432,231.208984 C646.070557,231.208984 643.2229,233.384277 643.2229,237.418457 C643.2229,242.283203 648.087646,244.537598 653.624756,248.136719 C659.755127,252.091797 664.698975,255.651367 664.698975,262.295898 C664.698975,269.731445 658.212646,273.646973 650.856201,273.646973 C648.522705,273.646973 646.386963,273.291016 644.448975,272.5 C643.302002,271.946289 642.19458,271.194824 641.126709,270.324707 C640.889404,270.087402 640.612549,270.008301 640.375244,270.008301 C639.66333,270.008301 639.030518,271.036621 638.714111,273.053711 L636.855225,273.053711 C637.092529,269.573242 637.171631,265.064453 637.171631,256.877441 L639.030518,256.877441 C640.098389,265.93457 642.19458,272.025391 650.30249,272.025391 C653.545654,272.025391 657.500732,270.087402 657.500732,264.312988 C657.500732,259.606445 653.624756,257.035645 648.324951,253.713379 C642.431885,249.995605 637.171631,246.831543 637.171631,240.10791 C637.171631,232.909668 642.748291,229.666504 649.155518,229.666504 Z M680.584229,210.523926 C683.392334,210.523926 685.765381,212.896973 685.765381,215.705078 C685.765381,218.552734 683.392334,220.88623 680.584229,220.88623 C677.736572,220.88623 675.403076,218.552734 675.403076,215.705078 C675.403076,212.896973 677.736572,210.523926 680.584229,210.523926 Z M684.776611,229.903809 L684.776611,264.985352 C684.776611,269.494141 686.477295,270.799316 690.946533,270.799316 L690.946533,272.5 C689.087646,272.420898 684.855713,272.183594 681.137939,272.183594 C677.420166,272.183594 673.188232,272.420898 671.329346,272.5 L671.329346,270.799316 C675.798584,270.799316 677.499268,269.494141 677.499268,264.985352 L677.499268,239.633301 C677.499268,234.768555 676.035889,232.474609 671.329346,232.474609 L671.329346,230.773926 C673.030029,230.932129 674.730713,231.01123 676.352295,231.01123 C679.516357,231.01123 682.443115,230.694824 684.776611,229.903809 Z M705.210205,263.601074 L724.234131,263.601074 C729.336182,263.601074 733.726318,265.459961 733.726318,271.115723 C733.726318,278.313965 726.765381,287.727051 711.063721,287.727051 C702.876709,287.727051 694.768799,285.235352 694.768799,280.291504 C694.768799,276.336426 699.791748,272.737305 704.93335,270.403809 L704.656494,270.403809 C701.808838,270.403809 696.548584,269.652344 696.548584,264.233887 C696.548584,260.753418 698.961182,257.470703 706.673584,253.990234 C702.125244,252.210449 699.158936,248.492676 699.158936,242.441406 C699.158936,233.54248 705.605713,229.666504 714.109131,229.666504 C716.165771,229.666504 718.10376,229.903809 719.843994,230.378418 C720.397705,227.333008 721.465576,224.801758 722.69165,223.180176 C723.996826,221.558594 725.855713,220.490723 728.22876,220.490723 C731.036865,220.490723 732.500244,222.349609 732.500244,224.722656 C732.500244,226.897949 730.878662,228.598633 728.624268,228.598633 C725.69751,228.598633 724.827393,226.660645 724.313232,223.496582 C723.522217,224.208496 722.810303,225.513672 722.137939,227.45166 C721.861084,228.361328 721.505127,229.46875 721.307373,230.813477 C726.013916,232.553711 729.098877,236.311035 729.098877,242.441406 C729.098877,251.340332 722.612549,255.255859 714.109131,255.255859 C711.933838,255.255859 709.916748,255.018555 708.136963,254.504395 C704.498291,256.442383 701.334229,258.419922 701.334229,260.911621 C701.334229,262.691406 702.44165,263.601074 705.210205,263.601074 Z M714.109131,231.090332 C709.600342,231.090332 706.752686,233.779785 706.752686,242.441406 C706.752686,251.103027 709.600342,253.79248 714.109131,253.79248 C718.657471,253.79248 721.505127,251.103027 721.505127,242.441406 C721.505127,233.779785 718.657471,231.090332 714.109131,231.090332 Z M713.239014,286.342773 C720.041748,286.342773 728.149658,282.704102 728.149658,274.912598 C728.149658,271.946289 726.923584,270.403809 721.979736,270.403809 L706.910889,270.403809 C703.351318,272.223145 701.41333,275.584961 701.41333,278.59082 C701.41333,284.088379 707.820557,286.342773 713.239014,286.342773 Z M765.273682,229.666504 C769.386963,229.666504 771.997314,230.773926 773.856201,232.711914 C775.873291,234.926758 776.664307,237.813965 776.664307,243.351074 L776.664307,264.985352 C776.664307,269.494141 778.36499,270.799316 782.834229,270.799316 L782.834229,272.5 C780.975342,272.420898 776.664307,272.183594 773.104736,272.183594 C769.545166,272.183594 765.748291,272.420898 764.047607,272.5 L764.047607,270.799316 C767.923584,270.799316 769.386963,269.494141 769.386963,264.985352 L769.386963,241.571289 C769.386963,236.54834 768.675049,232.237305 762.821533,232.237305 C756.018799,232.237305 751.470459,238.723633 751.470459,246.989746 L751.470459,264.985352 C751.470459,269.494141 752.933838,270.799316 756.849365,270.799316 L756.849365,272.5 C755.148682,272.420898 751.312256,272.183594 747.752686,272.183594 C744.193115,272.183594 739.88208,272.420898 738.023193,272.5 L738.023193,270.799316 C742.492432,270.799316 744.193115,269.494141 744.193115,264.985352 L744.193115,239.633301 C744.193115,234.768555 742.729736,232.474609 738.023193,232.474609 L738.023193,230.773926 C739.723877,230.932129 741.424561,231.01123 743.046143,231.01123 C746.210205,231.01123 749.136963,230.694824 751.470459,229.903809 L751.470459,239.435547 C754.318115,232.158203 759.736572,229.666504 765.273682,229.666504 Z" id="Morrison-&amp;-Foerster" fill="#FFFFFF"></path>
                <g id="headline">
                    <g id="Group" transform="translate(657.712500, 175.000000)">
                        <g id="Line-2" stroke-linecap="square">
                            <use fill="black" fill-opacity="1" filter="url(#filter-2)" xlink:href="#path-1"></use>
                            <use stroke-opacity="0.426602129" stroke="#000000" stroke-width="1" xlink:href="#path-1"></use>
                        </g>
                        <polygon id="Path-2" fill="#30354C" points="0 209.027399 209.26493 0 209.26493 209.027399"></polygon>
                    </g>
                    <g id="Group" transform="translate(105.238636, 105.000000) scale(-1, -1) translate(-105.238636, -105.000000) translate(0.238636, 0.000000)">
                        <g id="Line-2" stroke-linecap="square">
                            <use fill="black" fill-opacity="1" filter="url(#filter-4)" xlink:href="#path-3"></use>
                            <use stroke-opacity="0.426602129" stroke="#000000" stroke-width="1" xlink:href="#path-3"></use>
                        </g>
                        <polygon id="Path-2" fill="#30354C" points="0 209.027399 209.26493 0 209.26493 209.027399"></polygon>
                    </g>
                </g>
            </g>
        </g>
    </g>
</svg>