<?xml version="1.0" encoding="UTF-8"?>
<svg width="117px" height="51px" viewBox="0 0 117 51" version="1.1" xmlns="http://www.w3.org/2000/svg" xmlns:xlink="http://www.w3.org/1999/xlink">
    <!-- Generator: Sketch 51.2 (57519) - http://www.bohemiancoding.com/sketch -->
    <title>Group 2</title>
    <desc>Created with Sketch.</desc>
    <defs></defs>
    <g id="Page-1" stroke="none" stroke-width="1" fill="none" fill-rule="evenodd">
        <g id="Desktop" transform="translate(-43.000000, -41.000000)">
            <g id="Group-2" transform="translate(43.000000, 41.000000)">
                <g id="Group-7">
                    <path d="M7.90607839,0.0752089136 C10.4630628,0.0752089136 12.491016,1.05292479 12.491016,2.48189415 C12.491016,3.23398329 11.9032035,3.63509749 10.845141,3.63509749 C8.34693778,3.63509749 10.2279378,1.17827298 8.28815653,1.17827298 C6.84801585,1.17827298 6.43654709,2.60724234 6.43654709,4.93871866 L6.43654709,5.08913649 L9.34621906,5.08913649 L9.34621906,6.24233983 L6.43654709,6.24233983 L6.43654709,15.718663 C6.43654709,16.3454039 7.20070337,16.545961 8.31754715,16.6462396 L8.31754715,17.6490251 C5.55482831,17.5988858 2.76271884,17.5988858 0,17.6490251 L0,16.6462396 C1.02867191,16.545961 1.82221881,16.3454039 1.82221881,15.718663 L1.82221881,6.24233983 L0.117562504,6.24233983 L0.117562504,5.08913649 L1.82221881,5.08913649 L1.82221881,4.88857939 C1.82221881,1.1281337 5.23153142,0.0752089136 7.90607839,0.0752089136 Z M21.925407,4.81337047 C23.4831102,4.81337047 24.6293446,5.51532033 24.6293446,6.79387187 C24.6293446,7.92200557 23.6888445,8.39832869 22.8365164,8.39832869 C21.5727195,8.39832869 21.0730788,7.39554318 19.8680632,7.39554318 C18.3691412,7.39554318 17.7813287,9.07520891 17.6637662,9.62674095 L17.6637662,15.718663 C17.6637662,16.3454039 18.4867037,16.545961 19.6329382,16.6462396 L19.6329382,17.6490251 C16.8702193,17.5988858 13.989938,17.5988858 11.2272191,17.6490251 L11.2272191,16.6462396 C12.255891,16.545961 13.0494379,16.3454039 13.0494379,15.718663 L13.0494379,8.69916435 C13.0494379,7.59610028 12.3146723,7.32033426 11.2272191,7.49582173 L11.2272191,6.49303621 C13.2551723,6.11699164 14.8422661,5.6908078 16.6938756,4.81337047 C17.0759537,4.9637883 17.36986,5.21448468 17.5462037,5.54038997 L16.9583912,8.39832869 L17.1935162,8.39832869 C18.1927975,6.29247911 19.72111,4.81337047 21.925407,4.81337047 Z M38.50172,15.0167131 C37.326095,17.1727019 35.0924074,17.9247911 32.9175011,17.9247911 C28.8909853,17.9247911 25.2171571,15.5933148 25.2171571,11.356546 C25.2171571,7.01949861 28.920376,4.86350975 32.5060323,4.86350975 C36.3562043,4.86350975 38.8250169,7.27019499 38.8250169,9.87743733 C38.8250169,11.1559889 38.3253763,11.7576602 36.9440169,11.7576602 L29.9784385,11.7576602 C29.9784385,14.1142061 30.8307667,16.7966574 33.8873918,16.7966574 C35.1511887,16.7966574 36.4443762,16.3955432 37.2673137,15.0167131 L38.50172,15.0167131 Z M34.651548,10.729805 C34.651548,7.72144847 34.1519074,5.96657382 32.4766417,5.96657382 C30.8601573,5.96657382 29.9784385,7.72144847 29.9784385,10.729805 L34.651548,10.729805 Z M52.2271424,14.1392758 C52.2271424,11.3816156 48.5239235,10.2785515 46.7898766,9.60167131 C45.3791265,9.07520891 44.2622827,8.49860724 44.2622827,7.44568245 C44.2622827,6.56824513 44.9676578,5.94150418 46.2314547,5.94150418 C47.4364703,5.94150418 49.1705173,6.54317549 50.2873611,8.67409471 L51.2866423,8.67409471 L51.0221267,5.08913649 L49.817111,5.08913649 C49.7583298,5.36490251 49.5232048,5.59052925 49.0529548,5.59052925 C48.2887985,5.59052925 47.4070797,4.88857939 45.5260796,4.88857939 C42.7339702,4.88857939 40.5884545,6.31754875 40.5884545,8.57381616 C40.5884545,11.3314763 43.7920327,12.4345404 45.6730328,13.1615599 C47.2013453,13.7381616 48.3769704,14.264624 48.3769704,15.4428969 C48.3769704,16.3704735 47.6422047,16.9470752 46.4959703,16.9470752 C44.9676578,16.9470752 42.4400639,15.8941504 41.7346889,14.0640669 L40.6766264,14.0640669 L41.0587045,17.6490251 L42.4106733,17.6490251 C42.4106733,17.2479109 42.6164077,17.0222841 42.9103139,17.0222841 C43.5569077,17.0222841 44.8794859,18 46.9368297,18 C49.4644235,18 52.2271424,16.5208914 52.2271424,14.1392758 Z M69.4794398,15.718663 L69.4794398,9.27576602 C69.4794398,5.6908078 67.1575804,4.81337047 65.0708459,4.81337047 C61.9848302,4.81337047 60.2213926,6.69359331 59.6335801,7.64623955 L59.9862676,6.09192201 L59.9862676,4.48746518 C59.9862676,2.88300836 59.9862676,1.93036212 60.1626114,0.727019499 C59.9862676,0.401114206 59.6923614,0.150417827 59.2808926,0 C57.5762363,0.852367688 55.4895019,1.37883008 53.5497205,1.67966574 L53.5497205,2.68245125 C54.7547362,2.50696379 55.3719393,2.78272981 55.3719393,3.86072423 L55.3719393,15.718663 C55.3719393,16.3454039 54.5783924,16.545961 53.5497205,16.6462396 L53.5497205,17.6490251 C56.3124394,17.5988858 59.1045488,17.5988858 61.8672677,17.6490251 L61.8672677,16.6462396 C60.7504239,16.545961 59.9862676,16.3454039 59.9862676,15.718663 L59.9862676,8.82451253 C60.1626114,8.09749304 61.132502,6.6183844 62.866549,6.6183844 C64.1303459,6.6183844 64.8945022,7.39554318 64.8945022,9.27576602 L64.8945022,15.718663 C64.8945022,16.3454039 64.0715646,16.5710306 62.9547209,16.6462396 L62.9547209,17.6490251 C65.8056116,17.5738162 68.597721,17.5738162 71.3898305,17.6490251 L71.3898305,16.6462396 C70.2729867,16.545961 69.4794398,16.3454039 69.4794398,15.718663 Z" id="fresh" fill="#FFFFFF"></path>
                    <path d="M23.3118163,36.0819672 L22.0540604,36.0819672 C21.3228071,37.4590164 19.8895504,37.8278689 18.7780453,37.8278689 C15.6482808,37.8278689 14.7707767,34.9262295 14.7707767,32.1229508 C14.7707767,29.3934426 15.5897805,27.204918 17.7542905,27.204918 C19.3337978,27.204918 19.4507984,28.4344262 19.4507984,29.5409836 C19.4507984,30.3278689 20.0358011,31.1147541 21.4105575,31.1147541 C22.8438141,31.1147541 23.4288168,30.2786885 23.4288168,29.5409836 C23.4288168,27.5491803 20.7378043,26.1229508 17.5787897,26.1229508 C13.8640225,26.1229508 9.91525424,28.1393443 9.91525424,32.4180328 C9.91525424,36.8442623 13.8055222,38.9344262 17.7835407,38.9344262 C20.1820518,38.9344262 22.1125607,38.2213115 23.3118163,36.0819672 Z M32.2916078,26.1229508 C35.5383729,26.1229508 39.662642,28.2377049 39.662642,32.5655738 C39.662642,37.0163934 35.5383729,38.9344262 32.2623577,38.9344262 C29.0155927,38.9344262 24.8913236,36.8196721 24.8913236,32.4918033 C24.8913236,28.0409836 29.0155927,26.1229508 32.2916078,26.1229508 Z M32.75961,37.852459 C34.1928666,37.852459 34.8656197,36.204918 34.8656197,33.795082 C34.8656197,29.9098361 33.5786138,27.204918 31.7943555,27.204918 C30.3610989,27.204918 29.6883458,28.852459 29.6883458,31.2377049 C29.6883458,35.1229508 30.9753517,37.852459 32.75961,37.852459 Z M56.8909717,36.7704918 L56.8909717,30.4508197 C56.8909717,26.9344262 54.580211,26.0737705 52.5034514,26.0737705 C49.4321872,26.0737705 47.6771791,27.9180328 47.1214265,28.852459 L46.9459257,28.852459 L47.3261774,26.7868852 C47.1799268,26.4672131 46.8581753,26.2213115 46.4779235,26.0737705 C44.635165,26.9590164 43.0556577,27.352459 41.0373983,27.7213115 L41.0373983,28.704918 C42.1196533,28.5327869 42.8216566,28.8032787 42.8216566,29.8852459 L42.8216566,36.7704918 C42.8216566,37.3852459 42.0319029,37.5819672 40.9496479,37.6803279 L40.9496479,38.6639344 C43.7576609,38.5901639 46.5071736,38.5901639 49.3151866,38.6639344 L49.3151866,37.6803279 C48.2036815,37.6065574 47.4139278,37.3852459 47.4139278,36.7704918 L47.4139278,30.0081967 C47.5894287,29.295082 48.6131834,27.8442623 50.3096912,27.8442623 C51.5674471,27.8442623 52.2987005,28.6065574 52.2987005,30.4508197 L52.2987005,36.7704918 C52.2987005,37.3852459 51.5089468,37.6065574 50.3974417,37.6803279 L50.3974417,38.6639344 C53.2347048,38.5901639 55.9842175,38.5901639 58.7922305,38.6639344 L58.7922305,37.6803279 C57.6807254,37.5819672 56.8909717,37.3852459 56.8909717,36.7704918 Z M73.0662966,36.0819672 L71.8085408,36.0819672 C71.0772874,37.4590164 69.6440308,37.8278689 68.5325256,37.8278689 C65.4027611,37.8278689 64.5252571,34.9262295 64.5252571,32.1229508 C64.5252571,29.3934426 65.3442609,27.204918 67.5087709,27.204918 C69.0882782,27.204918 69.2052787,28.4344262 69.2052787,29.5409836 C69.2052787,30.3278689 69.7902814,31.1147541 71.1650378,31.1147541 C72.5982944,31.1147541 73.1832971,30.2786885 73.1832971,29.5409836 C73.1832971,27.5491803 70.4922847,26.1229508 67.3332701,26.1229508 C63.6185029,26.1229508 59.6697346,28.1393443 59.6697346,32.4180328 C59.6697346,36.8442623 63.5600026,38.9344262 67.538021,38.9344262 C69.9365321,38.9344262 71.8670411,38.2213115 73.0662966,36.0819672 Z M87.8668651,36.0819672 C86.6968597,38.1967213 84.4738494,38.9344262 82.3093394,38.9344262 C78.3020708,38.9344262 74.6458039,36.647541 74.6458039,32.4918033 C74.6458039,28.2377049 78.331321,26.1229508 81.8998375,26.1229508 C85.7316052,26.1229508 88.1886166,28.4836066 88.1886166,31.0409836 C88.1886166,32.295082 87.6913643,32.8852459 86.3166079,32.8852459 L79.3843259,32.8852459 C79.3843259,35.1967213 80.2325798,37.8278689 83.2745939,37.8278689 C84.5323497,37.8278689 85.8193556,37.4344262 86.6383594,36.0819672 L87.8668651,36.0819672 Z M84.0350974,31.8770492 C84.0350974,28.9262295 83.5378451,27.204918 81.8705874,27.204918 C80.2618299,27.204918 79.3843259,28.9262295 79.3843259,31.8770492 L84.0350974,31.8770492 Z M99.6546697,26.1229508 C102.638184,26.1229508 106.2067,28.2131148 106.2067,32.5901639 C106.2067,37.2377049 102.316432,38.9344262 99.4206686,38.9344262 C97.8411613,38.9344262 96.7589063,38.3934426 95.9691526,37.7786885 L95.9691526,39.8688525 C95.9691526,41.0737705 96.6419057,41.2704918 98.0166621,41.2213115 L98.0166621,42.2295082 C95.8814022,42.4754098 93.453641,43.1393443 91.7571331,44 C91.3183811,43.9016393 90.9673795,43.6065574 90.8211288,43.1885246 C91.1136302,42.8442623 91.3768814,42.204918 91.3768814,40.704918 L91.3768814,29.8852459 C91.3768814,28.8032787 90.7626285,28.5327869 89.5926231,28.704918 L89.5926231,27.7213115 C91.4938819,27.4262295 93.5998917,26.9098361 95.2671494,26.0737705 C95.6474011,26.2213115 95.9691526,26.4672131 96.1154033,26.7868852 C96.0861532,26.9836066 96.056903,27.1803279 96.056903,27.352459 C96.9636572,26.6393443 98.2214131,26.1229508 99.6546697,26.1229508 Z M99.0989171,37.8278689 C100.824675,37.8278689 101.263427,35.8852459 101.263427,33.5983607 C101.263427,29.6639344 100.181172,27.3770492 98.2214131,27.3770492 C97.4024093,27.3770492 96.6419057,27.7704918 95.9984028,28.3114754 C95.9691526,28.9508197 95.9691526,29.6393443 95.9691526,30.5 L95.9691526,34.8278689 C96.0861532,36.6721311 97.8119112,37.8278689 99.0989171,37.8278689 Z M117,37.852459 L117,36.7704918 C116.561248,37.0901639 115.888495,37.4344262 115.215742,37.4344262 C114.074986,37.4344262 113.840985,36.4754098 113.840985,35.3196721 L113.840985,27.4754098 L117,27.4754098 L117,26.3442623 L113.840985,26.3442623 L113.840985,23 L112.378479,23 C111.676475,25.4098361 110.53572,26.3442623 107.669207,26.3442623 L107.669207,27.4754098 L109.248714,27.4754098 L109.248714,34.852459 C109.248714,37.5819672 110.915972,38.8360656 113.577734,38.8360656 C115.215742,38.8360656 116.327247,38.3934426 117,37.852459 Z" id="concept" fill="#FFFFFF"></path>
                    <polygon id="Line" fill="#EA5963" fill-rule="nonzero" points="14.8728814 51 96.1779661 51 96.1779661 49 14.8728814 49"></polygon>
                </g>
            </g>
        </g>
    </g>
</svg>