<?xml version="1.0" encoding="UTF-8"?>
<svg width="513px" height="513px" viewBox="0 0 513 513" version="1.1" xmlns="http://www.w3.org/2000/svg" xmlns:xlink="http://www.w3.org/1999/xlink">
    <!-- Generator: Sketch 64 (93537) - https://sketch.com -->
    <title>Artboard</title>
    <desc>Created with Sketch.</desc>
    <g id="Artboard" stroke="none" stroke-width="1" fill="none" fill-rule="evenodd">
        <rect fill="#FFFFFF" x="0" y="0" width="513" height="513"></rect>
        <g id="Group-2" transform="translate(0.000000, 0.000000)">
            <path d="M247.316735,385 C347.280595,385 439.283553,361.46751 512.337754,321.988686 L513,-2.27373675e-13 C354.556457,-2.27373675e-13 183.556457,-2.27373675e-13 0,-2.27373675e-13 C0,67.1547834 0.216602788,177.614053 0.649808364,331.377809 C70.4972754,365.169851 155.552795,385 247.316735,385 Z" id="Oval" fill="#14D2B8"></path>
            <path d="M336.35076,392 C399.306214,392 459.104171,380.59824 513,360.109534 L511.945642,-2.27373675e-13 C353.502099,-2.27373675e-13 182.853551,-2.27373675e-13 0,-2.27373675e-13 C0,57.4181296 0.338964947,142.931882 1.01689484,256.541256 C79.8957818,339.145956 200.804819,392 336.35076,392 Z" id="Oval" fill-opacity="0.936216128" fill="#596DFF"></path>
        </g>
        <g id="Group-4" transform="translate(187.000000, 158.000000)">
            <path d="M9.4828298,149.487458 L9.4828298,128.302373 L6,128.302373 L6,123.689492 L9.4828298,123.689492 L9.4828298,121.395254 C9.4828298,116.367458 11.8367424,114 17.361231,114 C18.5381873,114 19.8352411,114.122034 20.5798461,114.268475 L20.5798461,118.515254 C20.0754363,118.442034 19.3788703,118.368814 18.6823044,118.368814 C16.4004504,118.368814 15.3676112,119.467119 15.3676112,121.566102 L15.3676112,123.689492 L20.4597485,123.689492 L20.4597485,128.302373 L15.4636892,128.302373 L15.4636892,149.487458 L9.4828298,149.487458 Z M31.0955902,145.313898 C34.4823419,145.313898 37.1965472,143.019661 37.1965472,139.895593 L37.1965472,137.918644 L31.3117658,138.284746 C28.4294239,138.48 26.7720773,139.797966 26.7720773,141.848136 C26.7720773,143.971525 28.5014825,145.313898 31.0955902,145.313898 Z M29.2941265,149.902373 C24.3701257,149.902373 20.7912179,146.753898 20.7912179,142.092203 C20.7912179,137.503729 24.2740477,134.745763 30.4710828,134.355254 L37.1965472,133.964746 L37.1965472,132.109831 C37.1965472,129.400678 35.3950835,127.838644 32.4406831,127.838644 C29.6063802,127.838644 27.8049165,129.229831 27.4206042,131.377627 L21.8720961,131.377627 C22.1363108,126.545085 26.1956089,123.079322 32.6808782,123.079322 C38.9980109,123.079322 43.1053481,126.471864 43.1053481,131.670508 L43.1053481,149.487458 L37.3406643,149.487458 L37.3406643,145.362712 L37.2205667,145.362712 C35.7553762,148.169492 32.5607806,149.902373 29.2941265,149.902373 Z M69.0176018,123.616271 L60.0583224,149.487458 L53.476975,149.487458 L44.4456371,123.616271 L50.8348283,123.616271 L56.7436292,143.849492 L56.8637268,143.849492 L62.7725277,123.616271 L69.0176018,123.616271 Z M93.1764309,123.616271 L84.2171514,149.487458 L77.6358041,149.487458 L68.6044661,123.616271 L74.9936573,123.616271 L80.9024582,143.849492 L81.0225558,143.849492 L86.9313567,123.616271 L93.1764309,123.616271 Z M105.229424,150 C97.7593545,150 92.9074123,144.947797 92.9074123,136.551864 C92.9074123,128.204746 97.8073935,123.079322 105.229424,123.079322 C112.651454,123.079322 117.551436,128.180339 117.551436,136.551864 C117.551436,144.947797 112.699493,150 105.229424,150 Z M105.229424,145.191864 C109.024507,145.191864 111.474498,142.067797 111.474498,136.551864 C111.474498,131.060339 109.024507,127.911864 105.229424,127.911864 C101.45836,127.911864 98.9843498,131.060339 98.9843498,136.551864 C98.9843498,142.067797 101.43434,145.191864 105.229424,145.191864 Z M120.164759,149.487458 L120.164759,123.616271 L125.905423,123.616271 L125.905423,128.131525 L126.025521,128.131525 C126.890223,124.983051 129.124038,123.176949 132.126478,123.176949 C132.895102,123.176949 133.567649,123.32339 134,123.421017 L134,128.912542 C133.49559,128.717288 132.582849,128.570847 131.574029,128.570847 C128.187277,128.570847 126.145618,130.791864 126.145618,134.428475 L126.145618,149.487458 L120.164759,149.487458 Z" id="favvor" fill="#F6F6F6" fill-rule="nonzero"></path>
            <g id="Group" transform="translate(0.000000, -0.000000)">
                <g id="Group-3" transform="translate(44.330579, 0.000000)" fill="#FFFFFF" fill-rule="nonzero">
                    <path d="M-9.57258128,50.5805872 C-14.865447,45.2685383 -14.8703717,36.6510571 -9.58358109,31.3329041 C-4.29679043,26.0147512 4.2797156,26.0098029 9.57258128,31.3218518 L41.2903955,63.1546226 C46.5832612,68.4666715 46.588186,77.0841527 41.3013953,82.4023057 C36.0146046,87.7204586 27.4380986,87.7254069 22.1452329,82.413358 L-9.57258128,50.5805872 Z" id="Line"></path>
                    <path d="M93.6515508,-8.61085953 C98.9444165,-13.9229084 107.520923,-13.9179601 112.807713,-8.59980717 C118.094504,-3.28165422 118.089579,5.33582704 112.796713,10.6478759 L41.2903955,82.413358 C35.9975298,87.7254069 27.4210238,87.7204586 22.1342331,82.4023057 C16.8474425,77.0841527 16.8523672,68.4666715 22.1452329,63.1546226 L93.6515508,-8.61085953 Z" id="Line"></path>
                </g>
                <ellipse id="Oval" fill="#FB6B88" cx="14.161157" cy="14.2288136" rx="14.161157" ry="14.2288136"></ellipse>
            </g>
        </g>
    </g>
</svg>