<?xml version="1.0" encoding="UTF-8"?>
<svg width="74px" height="30px" viewBox="0 0 74 30" version="1.1" xmlns="http://www.w3.org/2000/svg" xmlns:xlink="http://www.w3.org/1999/xlink">
    <!-- Generator: Sketch 64 (93537) - https://sketch.com -->
    <title>logo</title>
    <desc>Created with Sketch.</desc>
    <g id="Page-1" stroke="none" stroke-width="1" fill="none" fill-rule="evenodd">
        <g id="logo" fill="#FFFFFF" fill-rule="nonzero">
            <polygon id="K" points="20.2054615 30 28.1854615 30 16.3834615 12.864 27.4294615 0.6 19.7434615 0.6 7.52146154 13.956 7.52146154 0.6 0.88546154 0.6 0.88546154 30 7.52146154 30 7.52146154 22.734 11.7634615 18.03"></polygon>
            <polygon id="T" points="46.9134615 6.228 46.9134615 0.6 22.3434615 0.6 22.3434615 6.228 31.2894615 6.228 31.2894615 30 37.9254615 30 37.9254615 6.228"></polygon>
            <path d="M45.2134615,0.6 L45.2134615,30 L57.4354615,30 C66.7174615,30 73.1434615,23.952 73.1434615,15.3 C73.1434615,6.606 66.8014615,0.6 57.6874615,0.6 L45.2134615,0.6 Z M51.8494615,6.186 L57.5614615,6.186 C62.6014615,6.186 66.3814615,9.924 66.3814615,15.342 C66.3814615,20.718 62.7694615,24.414 57.8554615,24.414 L51.8494615,24.414 L51.8494615,6.186 Z" id="D"></path>
        </g>
    </g>
</svg>