<?xml version="1.0" encoding="UTF-8"?>
<svg width="867px" height="385px" viewBox="0 0 867 385" version="1.1" xmlns="http://www.w3.org/2000/svg" xmlns:xlink="http://www.w3.org/1999/xlink">
    <!-- Generator: Sketch 51.2 (57519) - http://www.bohemiancoding.com/sketch -->
    <title>headline</title>
    <desc>Created with Sketch.</desc>
    <defs>
        <path d="M25.1508797,183.877668 L200.256411,8.97089449" id="path-1"></path>
        <filter x="-4.3%" y="-5.4%" width="108.5%" height="108.5%" filterUnits="objectBoundingBox" id="filter-2">
            <feMorphology radius="0.5" operator="dilate" in="SourceAlpha" result="shadowSpreadOuter1"></feMorphology>
            <feOffset dx="0" dy="-2" in="shadowSpreadOuter1" result="shadowOffsetOuter1"></feOffset>
            <feMorphology radius="1" operator="erode" in="SourceAlpha" result="shadowInner"></feMorphology>
            <feOffset dx="0" dy="-2" in="shadowInner" result="shadowInner"></feOffset>
            <feComposite in="shadowOffsetOuter1" in2="shadowInner" operator="out" result="shadowOffsetOuter1"></feComposite>
            <feGaussianBlur stdDeviation="2" in="shadowOffsetOuter1" result="shadowBlurOuter1"></feGaussianBlur>
            <feColorMatrix values="0 0 0 0 0   0 0 0 0 0   0 0 0 0 0  0 0 0 0.309301404 0" type="matrix" in="shadowBlurOuter1"></feColorMatrix>
        </filter>
        <path d="M25.1508797,183.877668 L200.256411,8.97089449" id="path-3"></path>
        <filter x="-4.3%" y="-5.4%" width="108.5%" height="108.5%" filterUnits="objectBoundingBox" id="filter-4">
            <feMorphology radius="0.5" operator="dilate" in="SourceAlpha" result="shadowSpreadOuter1"></feMorphology>
            <feOffset dx="0" dy="-2" in="shadowSpreadOuter1" result="shadowOffsetOuter1"></feOffset>
            <feMorphology radius="1" operator="erode" in="SourceAlpha" result="shadowInner"></feMorphology>
            <feOffset dx="0" dy="-2" in="shadowInner" result="shadowInner"></feOffset>
            <feComposite in="shadowOffsetOuter1" in2="shadowInner" operator="out" result="shadowOffsetOuter1"></feComposite>
            <feGaussianBlur stdDeviation="2" in="shadowOffsetOuter1" result="shadowBlurOuter1"></feGaussianBlur>
            <feColorMatrix values="0 0 0 0 0   0 0 0 0 0   0 0 0 0 0  0 0 0 0.309301404 0" type="matrix" in="shadowBlurOuter1"></feColorMatrix>
        </filter>
    </defs>
    <g id="Page-1" stroke="none" stroke-width="1" fill="none" fill-rule="evenodd">
        <g id="Desktop" transform="translate(-159.000000, -92.000000)">
            <g id="headline" transform="translate(159.000000, 92.000000)">
                <path d="M151.039986,109.359375 L151.039986,110.960938 C145.610298,111.195312 144.555611,112.015625 144.555611,117.835938 L144.555611,157.523438 C144.555611,163.34375 145.610298,164.164062 151.039986,164.398438 L151.039986,166 C148.539986,165.84375 144.555611,165.765625 140.883736,165.765625 C136.704048,165.765625 132.875923,165.84375 130.649361,166 L130.649361,164.398438 C136.079048,164.164062 137.094673,163.34375 137.094673,157.523438 L137.094673,114.710938 L117.836861,166.390625 L116.547798,166.390625 L96.3915483,114.476562 L96.3915483,156.703125 C96.3915483,162.5625 97.4462358,164.164062 103.657173,164.398438 L103.657173,166 C101.743111,165.84375 98.2274858,165.765625 95.4931108,165.765625 C92.7977983,165.765625 89.8290483,165.84375 88.0712358,166 L88.0712358,164.398438 C93.5009233,164.164062 94.5556108,162.5625 94.5556108,156.703125 L94.5556108,117.835938 C94.5556108,112.015625 93.5009233,111.195312 88.0712358,110.960938 L88.0712358,109.359375 C89.8290483,109.515625 92.7977983,109.59375 95.4931108,109.59375 C97.8368608,109.59375 100.571236,109.515625 102.329048,109.359375 L119.907173,155.765625 L137.094673,109.59375 L140.883736,109.59375 C144.555611,109.59375 148.539986,109.515625 151.039986,109.359375 Z M176.313423,123.695312 C186.469673,123.695312 194.477486,130.0625 194.477486,145.453125 C194.477486,160.804688 186.469673,167.132812 176.313423,167.132812 C166.157173,167.132812 158.149361,160.804688 158.149361,145.453125 C158.149361,130.0625 166.157173,123.695312 176.313423,123.695312 Z M176.313423,125.296875 C170.258736,125.296875 165.922798,131.117188 165.922798,145.453125 C165.922798,159.75 170.258736,165.53125 176.313423,165.53125 C182.407173,165.53125 186.704048,159.75 186.704048,145.453125 C186.704048,131.117188 182.407173,125.296875 176.313423,125.296875 Z M225.414986,123.695312 C229.750923,123.695312 232.719673,126.546875 232.719673,129.984375 C232.719673,132.71875 230.961861,135.023438 228.149361,135.023438 C225.922798,135.023438 223.891548,133.539062 223.891548,130.882812 C223.891548,128.890625 225.180611,127.445312 226.625923,126.546875 C226.235298,126 225.649361,125.765625 224.946236,125.765625 C218.227486,125.765625 213.813423,134.867188 213.813423,140.804688 L213.813423,157.757812 C213.813423,162.953125 217.016548,164.320312 222.289986,164.320312 L222.289986,166 C219.829048,165.921875 214.946236,165.6875 209.985298,165.6875 C206.313423,165.6875 202.368111,165.921875 200.532173,166 L200.532173,164.320312 C204.946236,164.320312 206.625923,163.03125 206.625923,158.578125 L206.625923,133.539062 C206.625923,128.734375 205.180611,126.46875 200.532173,126.46875 L200.532173,124.789062 C202.211861,124.945312 203.891548,125.023438 205.493111,125.023438 C208.618111,125.023438 211.508736,124.710938 213.813423,123.929688 L213.813423,133.929688 C215.493111,129.28125 219.829048,123.695312 225.414986,123.695312 Z M261.000923,123.695312 C265.336861,123.695312 268.305611,126.546875 268.305611,129.984375 C268.305611,132.71875 266.547798,135.023438 263.735298,135.023438 C261.508736,135.023438 259.477486,133.539062 259.477486,130.882812 C259.477486,128.890625 260.766548,127.445312 262.211861,126.546875 C261.821236,126 261.235298,125.765625 260.532173,125.765625 C253.813423,125.765625 249.399361,134.867188 249.399361,140.804688 L249.399361,157.757812 C249.399361,162.953125 252.602486,164.320312 257.875923,164.320312 L257.875923,166 C255.414986,165.921875 250.532173,165.6875 245.571236,165.6875 C241.899361,165.6875 237.954048,165.921875 236.118111,166 L236.118111,164.320312 C240.532173,164.320312 242.211861,163.03125 242.211861,158.578125 L242.211861,133.539062 C242.211861,128.734375 240.766548,126.46875 236.118111,126.46875 L236.118111,124.789062 C237.797798,124.945312 239.477486,125.023438 241.079048,125.023438 C244.204048,125.023438 247.094673,124.710938 249.399361,123.929688 L249.399361,133.929688 C251.079048,129.28125 255.414986,123.695312 261.000923,123.695312 Z M280.844673,104.789062 C283.618111,104.789062 285.961861,107.132812 285.961861,109.90625 C285.961861,112.71875 283.618111,115.023438 280.844673,115.023438 C278.032173,115.023438 275.727486,112.71875 275.727486,109.90625 C275.727486,107.132812 278.032173,104.789062 280.844673,104.789062 Z M284.985298,123.929688 L284.985298,158.578125 C284.985298,163.03125 286.664986,164.320312 291.079048,164.320312 L291.079048,166 C289.243111,165.921875 285.063423,165.6875 281.391548,165.6875 C277.719673,165.6875 273.539986,165.921875 271.704048,166 L271.704048,164.320312 C276.118111,164.320312 277.797798,163.03125 277.797798,158.578125 L277.797798,133.539062 C277.797798,128.734375 276.352486,126.46875 271.704048,126.46875 L271.704048,124.789062 C273.383736,124.945312 275.063423,125.023438 276.664986,125.023438 C279.789986,125.023438 282.680611,124.710938 284.985298,123.929688 Z M309.399361,123.695312 C313.618111,123.695312 316.664986,125.453125 318.110298,126.625 C318.657173,127.054688 319.125923,127.289062 319.516548,127.289062 C320.454048,127.289062 321.039986,126.15625 321.313423,123.773438 L323.149361,123.773438 C322.914986,126.703125 322.836861,130.492188 322.836861,137.367188 L321.000923,137.367188 C320.024361,131.429688 317.329048,125.21875 310.102486,125.21875 C306.352486,125.21875 303.539986,127.367188 303.539986,131.351562 C303.539986,136.15625 308.344673,138.382812 313.813423,141.9375 C319.868111,145.84375 324.750923,149.359375 324.750923,155.921875 C324.750923,163.265625 318.344673,167.132812 311.079048,167.132812 C308.774361,167.132812 306.664986,166.78125 304.750923,166 C303.618111,165.453125 302.524361,164.710938 301.469673,163.851562 C301.235298,163.617188 300.961861,163.539062 300.727486,163.539062 C300.024361,163.539062 299.399361,164.554688 299.086861,166.546875 L297.250923,166.546875 C297.485298,163.109375 297.563423,158.65625 297.563423,150.570312 L299.399361,150.570312 C300.454048,159.515625 302.524361,165.53125 310.532173,165.53125 C313.735298,165.53125 317.641548,163.617188 317.641548,157.914062 C317.641548,153.265625 313.813423,150.726562 308.579048,147.445312 C302.758736,143.773438 297.563423,140.648438 297.563423,134.007812 C297.563423,126.898438 303.071236,123.695312 309.399361,123.695312 Z M350.414986,123.695312 C360.571236,123.695312 368.579048,130.0625 368.579048,145.453125 C368.579048,160.804688 360.571236,167.132812 350.414986,167.132812 C340.258736,167.132812 332.250923,160.804688 332.250923,145.453125 C332.250923,130.0625 340.258736,123.695312 350.414986,123.695312 Z M350.414986,125.296875 C344.360298,125.296875 340.024361,131.117188 340.024361,145.453125 C340.024361,159.75 344.360298,165.53125 350.414986,165.53125 C356.508736,165.53125 360.805611,159.75 360.805611,145.453125 C360.805611,131.117188 356.508736,125.296875 350.414986,125.296875 Z M401.547798,123.695312 C405.610298,123.695312 408.188423,124.789062 410.024361,126.703125 C412.016548,128.890625 412.797798,131.742188 412.797798,137.210938 L412.797798,158.578125 C412.797798,163.03125 414.477486,164.320312 418.891548,164.320312 L418.891548,166 C417.055611,165.921875 412.797798,165.6875 409.282173,165.6875 C405.766548,165.6875 402.016548,165.921875 400.336861,166 L400.336861,164.320312 C404.164986,164.320312 405.610298,163.03125 405.610298,158.578125 L405.610298,135.453125 C405.610298,130.492188 404.907173,126.234375 399.125923,126.234375 C392.407173,126.234375 387.914986,132.640625 387.914986,140.804688 L387.914986,158.578125 C387.914986,163.03125 389.360298,164.320312 393.227486,164.320312 L393.227486,166 C391.547798,165.921875 387.758736,165.6875 384.243111,165.6875 C380.727486,165.6875 376.469673,165.921875 374.633736,166 L374.633736,164.320312 C379.047798,164.320312 380.727486,163.03125 380.727486,158.578125 L380.727486,133.539062 C380.727486,128.734375 379.282173,126.46875 374.633736,126.46875 L374.633736,124.789062 C376.313423,124.945312 377.993111,125.023438 379.594673,125.023438 C382.719673,125.023438 385.610298,124.710938 387.914986,123.929688 L387.914986,133.34375 C390.727486,126.15625 396.079048,123.695312 401.547798,123.695312 Z M493.696236,108.226562 C500.258736,108.226562 505.375923,112.25 505.375923,119.046875 C505.375923,124.476562 502.016548,128.148438 497.797798,130.257812 C495.258736,131.46875 490.571236,132.992188 485.922798,134.4375 C492.172798,137.054688 494.672798,142.210938 494.672798,147.992188 C494.672798,157.679688 485.688423,167.132812 470.258736,167.132812 C456.430611,167.132812 444.360298,159.515625 444.360298,147.210938 C444.360298,135.609375 455.063423,131.195312 459.125923,130.140625 C453.774361,127.835938 451.079048,123.773438 451.079048,119.828125 C451.079048,114.632812 455.688423,109.828125 464.594673,109.828125 C468.657173,109.828125 471.235298,110.882812 472.914986,112.25 C474.985298,113.929688 475.883736,116.078125 475.883736,117.757812 C475.883736,120.414062 473.618111,122.015625 471.391548,122.015625 C469.243111,122.015625 467.211861,120.570312 467.211861,117.992188 C467.211861,115.6875 468.969673,113.851562 471.469673,113.617188 C471.000923,112.25 468.657173,111.039062 465.375923,111.039062 C459.946236,111.039062 456.118111,114.398438 456.118111,120.570312 C456.118111,123.539062 456.977486,126.703125 460.180611,129.671875 C462.016548,129.359375 464.164986,129.203125 465.141548,129.203125 C467.055611,129.203125 468.344673,129.828125 468.344673,131.039062 C468.344673,132.015625 467.446236,132.5625 466.118111,132.5625 C464.086861,132.5625 461.547798,131.351562 460.258736,130.804688 C454.086861,132.640625 449.868111,136.46875 449.868111,143.929688 C449.868111,154.945312 459.321236,161.195312 471.313423,161.195312 C482.602486,161.195312 492.329048,155.6875 492.329048,146.546875 C492.329048,143.695312 491.352486,137.796875 484.282173,134.945312 C480.649361,136.078125 477.211861,137.171875 475.063423,137.992188 C471.079048,139.515625 468.032173,141.507812 468.032173,144.945312 C468.032173,149.125 472.329048,151.351562 475.375923,151.351562 C476.821236,151.351562 479.868111,150.804688 480.180611,149.59375 C478.500923,149.28125 476.430611,148.226562 476.430611,145.53125 C476.430611,142.953125 478.344673,141.351562 480.805611,141.351562 C483.383736,141.351562 485.063423,143.109375 485.063423,145.6875 C485.063423,150.257812 479.789986,152.5625 475.532173,152.5625 C471.000923,152.5625 465.610298,149.828125 465.610298,143.1875 C465.610298,137.679688 469.399361,134.007812 476.664986,131.507812 C481.469673,129.90625 490.258736,127.914062 496.196236,125.21875 C501.547798,122.71875 503.071236,120.257812 503.071236,117.523438 C503.071236,112.953125 498.735298,109.4375 493.774361,109.4375 C492.485298,109.4375 491.625923,109.671875 491.391548,110.140625 C492.836861,110.882812 493.618111,112.484375 493.618111,113.851562 C493.618111,116.078125 491.547798,117.757812 489.125923,117.757812 C487.055611,117.757812 484.907173,116.46875 484.907173,113.773438 C484.907173,109.59375 489.868111,108.226562 493.696236,108.226562 Z M570.180611,109.359375 C569.789986,113.421875 569.633736,117.601562 569.633736,119.59375 C569.633736,122.171875 569.711861,124.476562 569.868111,126.15625 L568.032173,126.15625 C566.899361,115.023438 565.688423,111.195312 555.688423,111.195312 L550.649361,111.195312 C545.219673,111.195312 544.164986,112.015625 544.164986,117.835938 L544.164986,137.523438 L550.024361,137.523438 C556.977486,137.523438 556.821236,130.804688 557.446236,126.976562 L559.282173,126.976562 C559.047798,130.335938 559.008736,132.640625 559.008736,134.515625 C559.008736,135.960938 559.047798,137.132812 559.047798,138.304688 C559.047798,140.960938 559.125923,143.617188 559.555611,149.671875 L557.680611,149.671875 C557.055611,144.554688 556.977486,139.125 550.024361,139.125 L544.164986,139.125 L544.164986,157.523438 C544.164986,163.34375 545.532173,164.164062 552.250923,164.398438 L552.250923,166 C549.477486,165.84375 544.829048,165.765625 540.493111,165.765625 C536.352486,165.765625 532.485298,165.84375 530.258736,166 L530.258736,164.398438 C535.688423,164.164062 536.743111,163.34375 536.743111,157.523438 L536.743111,117.835938 C536.743111,112.015625 535.688423,111.195312 530.258736,110.960938 L530.258736,109.359375 C538.110298,109.59375 548.657173,109.59375 553.461861,109.59375 C558.344673,109.59375 565.219673,109.59375 570.180611,109.359375 Z M594.321236,123.695312 C604.477486,123.695312 612.485298,130.0625 612.485298,145.453125 C612.485298,160.804688 604.477486,167.132812 594.321236,167.132812 C584.164986,167.132812 576.157173,160.804688 576.157173,145.453125 C576.157173,130.0625 584.164986,123.695312 594.321236,123.695312 Z M594.321236,125.296875 C588.266548,125.296875 583.930611,131.117188 583.930611,145.453125 C583.930611,159.75 588.266548,165.53125 594.321236,165.53125 C600.414986,165.53125 604.711861,159.75 604.711861,145.453125 C604.711861,131.117188 600.414986,125.296875 594.321236,125.296875 Z M651.664986,155.765625 L653.266548,156.390625 C651.508736,161.742188 646.235298,167.132812 638.305611,167.132812 C626.704048,167.132812 619.907173,158.65625 619.907173,146.390625 C619.907173,132.328125 627.016548,123.695312 637.993111,123.695312 C647.368111,123.695312 652.954048,129.203125 652.954048,141.273438 L627.954048,141.273438 C627.758736,142.796875 627.680611,144.632812 627.680611,146.390625 C627.680611,157.367188 633.774361,163.773438 639.907173,163.773438 C644.711861,163.773438 648.891548,161.742188 651.664986,155.765625 Z M637.680611,125.21875 C632.914986,125.21875 628.696236,129.671875 627.836861,139.75 L645.258736,139.75 C645.532173,131.9375 643.032173,125.21875 637.680611,125.21875 Z M683.891548,123.695312 C688.227486,123.695312 691.196236,126.546875 691.196236,129.984375 C691.196236,132.71875 689.438423,135.023438 686.625923,135.023438 C684.399361,135.023438 682.368111,133.539062 682.368111,130.882812 C682.368111,128.890625 683.657173,127.445312 685.102486,126.546875 C684.711861,126 684.125923,125.765625 683.422798,125.765625 C676.704048,125.765625 672.289986,134.867188 672.289986,140.804688 L672.289986,157.757812 C672.289986,162.953125 675.493111,164.320312 680.766548,164.320312 L680.766548,166 C678.305611,165.921875 673.422798,165.6875 668.461861,165.6875 C664.789986,165.6875 660.844673,165.921875 659.008736,166 L659.008736,164.320312 C663.422798,164.320312 665.102486,163.03125 665.102486,158.578125 L665.102486,133.539062 C665.102486,128.734375 663.657173,126.46875 659.008736,126.46875 L659.008736,124.789062 C660.688423,124.945312 662.368111,125.023438 663.969673,125.023438 C667.094673,125.023438 669.985298,124.710938 672.289986,123.929688 L672.289986,133.929688 C673.969673,129.28125 678.305611,123.695312 683.891548,123.695312 Z M708.852486,123.695312 C713.071236,123.695312 716.118111,125.453125 717.563423,126.625 C718.110298,127.054688 718.579048,127.289062 718.969673,127.289062 C719.907173,127.289062 720.493111,126.15625 720.766548,123.773438 L722.602486,123.773438 C722.368111,126.703125 722.289986,130.492188 722.289986,137.367188 L720.454048,137.367188 C719.477486,131.429688 716.782173,125.21875 709.555611,125.21875 C705.805611,125.21875 702.993111,127.367188 702.993111,131.351562 C702.993111,136.15625 707.797798,138.382812 713.266548,141.9375 C719.321236,145.84375 724.204048,149.359375 724.204048,155.921875 C724.204048,163.265625 717.797798,167.132812 710.532173,167.132812 C708.227486,167.132812 706.118111,166.78125 704.204048,166 C703.071236,165.453125 701.977486,164.710938 700.922798,163.851562 C700.688423,163.617188 700.414986,163.539062 700.180611,163.539062 C699.477486,163.539062 698.852486,164.554688 698.539986,166.546875 L696.704048,166.546875 C696.938423,163.109375 697.016548,158.65625 697.016548,150.570312 L698.852486,150.570312 C699.907173,159.515625 701.977486,165.53125 709.985298,165.53125 C713.188423,165.53125 717.094673,163.617188 717.094673,157.914062 C717.094673,153.265625 713.266548,150.726562 708.032173,147.445312 C702.211861,143.773438 697.016548,140.648438 697.016548,134.007812 C697.016548,126.898438 702.524361,123.695312 708.852486,123.695312 Z M743.149361,124.867188 L754.985298,124.867188 L754.985298,126.46875 L743.149361,126.46875 L743.149361,157.445312 C743.149361,162.484375 745.063423,164.242188 748.266548,164.242188 C751.469673,164.242188 753.813423,161.9375 755.493111,155.6875 L757.055611,156.078125 C755.961861,162.328125 753.149361,167.132812 746.664986,167.132812 C742.993111,167.132812 740.844673,166.234375 739.086861,164.476562 C736.743111,162.09375 735.961861,158.96875 735.961861,153.265625 L735.961861,126.46875 L728.266548,126.46875 L728.266548,124.867188 L735.961861,124.867188 L735.961861,112.640625 C738.579048,112.5625 741.157173,112.25 743.149361,111.507812 L743.149361,124.867188 Z M791.704048,155.765625 L793.305611,156.390625 C791.547798,161.742188 786.274361,167.132812 778.344673,167.132812 C766.743111,167.132812 759.946236,158.65625 759.946236,146.390625 C759.946236,132.328125 767.055611,123.695312 778.032173,123.695312 C787.407173,123.695312 792.993111,129.203125 792.993111,141.273438 L767.993111,141.273438 C767.797798,142.796875 767.719673,144.632812 767.719673,146.390625 C767.719673,157.367188 773.813423,163.773438 779.946236,163.773438 C784.750923,163.773438 788.930611,161.742188 791.704048,155.765625 Z M777.719673,125.21875 C772.954048,125.21875 768.735298,129.671875 767.875923,139.75 L785.297798,139.75 C785.571236,131.9375 783.071236,125.21875 777.719673,125.21875 Z M823.930611,123.695312 C828.266548,123.695312 831.235298,126.546875 831.235298,129.984375 C831.235298,132.71875 829.477486,135.023438 826.664986,135.023438 C824.438423,135.023438 822.407173,133.539062 822.407173,130.882812 C822.407173,128.890625 823.696236,127.445312 825.141548,126.546875 C824.750923,126 824.164986,125.765625 823.461861,125.765625 C816.743111,125.765625 812.329048,134.867188 812.329048,140.804688 L812.329048,157.757812 C812.329048,162.953125 815.532173,164.320312 820.805611,164.320312 L820.805611,166 C818.344673,165.921875 813.461861,165.6875 808.500923,165.6875 C804.829048,165.6875 800.883736,165.921875 799.047798,166 L799.047798,164.320312 C803.461861,164.320312 805.141548,163.03125 805.141548,158.578125 L805.141548,133.539062 C805.141548,128.734375 803.696236,126.46875 799.047798,126.46875 L799.047798,124.789062 C800.727486,124.945312 802.407173,125.023438 804.008736,125.023438 C807.133736,125.023438 810.024361,124.710938 812.329048,123.929688 L812.329048,133.929688 C814.008736,129.28125 818.344673,123.695312 823.930611,123.695312 Z M185.981392,268.117188 L187.19233,269.015625 C184.926705,272.296875 182.934517,274.132812 178.637642,274.132812 C174.614205,274.132812 171.56733,272.296875 170.043892,265.460938 L168.28608,257.492188 C166.762642,250.695312 165.590767,246.125 159.262642,246.125 L151.645455,246.125 L151.645455,264.523438 C151.645455,270.34375 152.700142,271.164062 158.12983,271.398438 L158.12983,273 C155.668892,272.84375 151.645455,272.765625 147.97358,272.765625 C143.832955,272.765625 139.965767,272.84375 137.739205,273 L137.739205,271.398438 C143.168892,271.164062 144.22358,270.34375 144.22358,264.523438 L144.22358,224.835938 C144.22358,219.015625 143.168892,218.195312 137.739205,217.960938 L137.739205,216.359375 C139.965767,216.515625 143.989205,216.59375 147.50483,216.59375 C152.543892,216.59375 157.66108,216.4375 159.575142,216.4375 C172.465767,216.4375 178.872017,222.53125 178.872017,230.34375 C178.872017,235.890625 175.395455,243.859375 163.325142,245.734375 L164.301705,245.890625 C171.41108,247.0625 173.989205,249.796875 175.512642,256.4375 L177.50483,264.601562 C178.481392,269.25 179.37983,271.164062 181.606392,271.164062 C183.559517,271.164062 184.497017,269.992188 185.981392,268.117188 Z M157.582955,217.960938 C152.700142,217.960938 151.645455,219.328125 151.645455,224.835938 L151.645455,244.523438 L157.03608,244.523438 C168.364205,244.523438 170.864205,238.585938 170.864205,231.242188 C170.864205,222.84375 167.270455,217.960938 157.582955,217.960938 Z M221.645455,262.765625 L223.247017,263.390625 C221.489205,268.742188 216.215767,274.132812 208.28608,274.132812 C196.684517,274.132812 189.887642,265.65625 189.887642,253.390625 C189.887642,239.328125 196.997017,230.695312 207.97358,230.695312 C217.34858,230.695312 222.934517,236.203125 222.934517,248.273438 L197.934517,248.273438 C197.739205,249.796875 197.66108,251.632812 197.66108,253.390625 C197.66108,264.367188 203.75483,270.773438 209.887642,270.773438 C214.69233,270.773438 218.872017,268.742188 221.645455,262.765625 Z M207.66108,232.21875 C202.895455,232.21875 198.676705,236.671875 197.81733,246.75 L215.239205,246.75 C215.512642,238.9375 213.012642,232.21875 207.66108,232.21875 Z M265.395455,210.265625 L265.395455,264.289062 C265.395455,269.09375 266.840767,271.320312 271.489205,271.320312 L271.489205,273 C269.809517,272.84375 268.12983,272.765625 266.528267,272.765625 C263.403267,272.765625 260.512642,273.078125 258.207955,273.898438 L258.207955,266.789062 C256.25483,271.554688 252.387642,274.132812 246.840767,274.132812 C236.840767,274.132812 230.434517,266.984375 230.512642,252.453125 C230.434517,237.882812 238.989205,230.695312 248.59858,230.695312 C252.387642,230.695312 256.137642,232.023438 258.207955,235.421875 L258.207955,219.875 C258.207955,215.070312 256.762642,212.84375 252.114205,212.84375 L252.114205,211.164062 C253.793892,211.320312 255.47358,211.398438 257.075142,211.398438 C260.200142,211.398438 263.090767,211.085938 265.395455,210.265625 Z M249.145455,271.710938 C253.168892,271.710938 256.957955,268.546875 258.207955,262.492188 L258.207955,238.703125 C256.645455,234.367188 253.403267,232.53125 249.262642,232.53125 C242.934517,232.53125 238.207955,238.9375 238.28608,252.453125 C238.207955,265.382812 242.03608,271.710938 249.145455,271.710938 Z M308.59858,262.765625 L310.200142,263.390625 C308.44233,268.742188 303.168892,274.132812 295.239205,274.132812 C283.637642,274.132812 276.840767,265.65625 276.840767,253.390625 C276.840767,239.328125 283.950142,230.695312 294.926705,230.695312 C304.301705,230.695312 309.887642,236.203125 309.887642,248.273438 L284.887642,248.273438 C284.69233,249.796875 284.614205,251.632812 284.614205,253.390625 C284.614205,264.367188 290.707955,270.773438 296.840767,270.773438 C301.645455,270.773438 305.825142,268.742188 308.59858,262.765625 Z M294.614205,232.21875 C289.84858,232.21875 285.62983,236.671875 284.770455,246.75 L302.19233,246.75 C302.465767,238.9375 299.965767,232.21875 294.614205,232.21875 Z M330.200142,230.695312 C334.418892,230.695312 337.465767,232.453125 338.91108,233.625 C339.457955,234.054688 339.926705,234.289062 340.31733,234.289062 C341.25483,234.289062 341.840767,233.15625 342.114205,230.773438 L343.950142,230.773438 C343.715767,233.703125 343.637642,237.492188 343.637642,244.367188 L341.801705,244.367188 C340.825142,238.429688 338.12983,232.21875 330.903267,232.21875 C327.153267,232.21875 324.340767,234.367188 324.340767,238.351562 C324.340767,243.15625 329.145455,245.382812 334.614205,248.9375 C340.668892,252.84375 345.551705,256.359375 345.551705,262.921875 C345.551705,270.265625 339.145455,274.132812 331.87983,274.132812 C329.575142,274.132812 327.465767,273.78125 325.551705,273 C324.418892,272.453125 323.325142,271.710938 322.270455,270.851562 C322.03608,270.617188 321.762642,270.539062 321.528267,270.539062 C320.825142,270.539062 320.200142,271.554688 319.887642,273.546875 L318.051705,273.546875 C318.28608,270.109375 318.364205,265.65625 318.364205,257.570312 L320.200142,257.570312 C321.25483,266.515625 323.325142,272.53125 331.332955,272.53125 C334.53608,272.53125 338.44233,270.617188 338.44233,264.914062 C338.44233,260.265625 334.614205,257.726562 329.37983,254.445312 C323.559517,250.773438 318.364205,247.648438 318.364205,241.007812 C318.364205,233.898438 323.872017,230.695312 330.200142,230.695312 Z M360.747017,211.789062 C363.520455,211.789062 365.864205,214.132812 365.864205,216.90625 C365.864205,219.71875 363.520455,222.023438 360.747017,222.023438 C357.934517,222.023438 355.62983,219.71875 355.62983,216.90625 C355.62983,214.132812 357.934517,211.789062 360.747017,211.789062 Z M364.887642,230.929688 L364.887642,265.578125 C364.887642,270.03125 366.56733,271.320312 370.981392,271.320312 L370.981392,273 C369.145455,272.921875 364.965767,272.6875 361.293892,272.6875 C357.622017,272.6875 353.44233,272.921875 351.606392,273 L351.606392,271.320312 C356.020455,271.320312 357.700142,270.03125 357.700142,265.578125 L357.700142,240.539062 C357.700142,235.734375 356.25483,233.46875 351.606392,233.46875 L351.606392,231.789062 C353.28608,231.945312 354.965767,232.023438 356.56733,232.023438 C359.69233,232.023438 362.582955,231.710938 364.887642,230.929688 Z M384.575142,264.210938 L403.364205,264.210938 C408.403267,264.210938 412.739205,266.046875 412.739205,271.632812 C412.739205,278.742188 405.864205,288.039062 390.356392,288.039062 C382.270455,288.039062 374.262642,285.578125 374.262642,280.695312 C374.262642,276.789062 379.22358,273.234375 384.301705,270.929688 L384.028267,270.929688 C381.215767,270.929688 376.020455,270.1875 376.020455,264.835938 C376.020455,261.398438 378.403267,258.15625 386.020455,254.71875 C381.528267,252.960938 378.59858,249.289062 378.59858,243.3125 C378.59858,234.523438 384.965767,230.695312 393.364205,230.695312 C395.395455,230.695312 397.309517,230.929688 399.028267,231.398438 C399.575142,228.390625 400.62983,225.890625 401.840767,224.289062 C403.12983,222.6875 404.965767,221.632812 407.309517,221.632812 C410.082955,221.632812 411.528267,223.46875 411.528267,225.8125 C411.528267,227.960938 409.926705,229.640625 407.700142,229.640625 C404.809517,229.640625 403.950142,227.726562 403.44233,224.601562 C402.66108,225.304688 401.957955,226.59375 401.293892,228.507812 C401.020455,229.40625 400.668892,230.5 400.47358,231.828125 C405.122017,233.546875 408.168892,237.257812 408.168892,243.3125 C408.168892,252.101562 401.762642,255.96875 393.364205,255.96875 C391.215767,255.96875 389.22358,255.734375 387.465767,255.226562 C383.872017,257.140625 380.747017,259.09375 380.747017,261.554688 C380.747017,263.3125 381.840767,264.210938 384.575142,264.210938 Z M393.364205,232.101562 C388.91108,232.101562 386.09858,234.757812 386.09858,243.3125 C386.09858,251.867188 388.91108,254.523438 393.364205,254.523438 C397.856392,254.523438 400.668892,251.867188 400.668892,243.3125 C400.668892,234.757812 397.856392,232.101562 393.364205,232.101562 Z M392.50483,286.671875 C399.22358,286.671875 407.231392,283.078125 407.231392,275.382812 C407.231392,272.453125 406.020455,270.929688 401.137642,270.929688 L386.25483,270.929688 C382.739205,272.726562 380.825142,276.046875 380.825142,279.015625 C380.825142,284.445312 387.153267,286.671875 392.50483,286.671875 Z M443.403267,230.695312 C447.465767,230.695312 450.043892,231.789062 451.87983,233.703125 C453.872017,235.890625 454.653267,238.742188 454.653267,244.210938 L454.653267,265.578125 C454.653267,270.03125 456.332955,271.320312 460.747017,271.320312 L460.747017,273 C458.91108,272.921875 454.653267,272.6875 451.137642,272.6875 C447.622017,272.6875 443.872017,272.921875 442.19233,273 L442.19233,271.320312 C446.020455,271.320312 447.465767,270.03125 447.465767,265.578125 L447.465767,242.453125 C447.465767,237.492188 446.762642,233.234375 440.981392,233.234375 C434.262642,233.234375 429.770455,239.640625 429.770455,247.804688 L429.770455,265.578125 C429.770455,270.03125 431.215767,271.320312 435.082955,271.320312 L435.082955,273 C433.403267,272.921875 429.614205,272.6875 426.09858,272.6875 C422.582955,272.6875 418.325142,272.921875 416.489205,273 L416.489205,271.320312 C420.903267,271.320312 422.582955,270.03125 422.582955,265.578125 L422.582955,240.539062 C422.582955,235.734375 421.137642,233.46875 416.489205,233.46875 L416.489205,231.789062 C418.168892,231.945312 419.84858,232.023438 421.450142,232.023438 C424.575142,232.023438 427.465767,231.710938 429.770455,230.929688 L429.770455,240.34375 C432.582955,233.15625 437.934517,230.695312 443.403267,230.695312 Z M511.56733,215.226562 C518.59858,215.226562 522.778267,217.726562 526.293892,220.421875 C526.87983,220.890625 527.387642,221.125 527.856392,221.125 C528.950142,221.125 529.614205,219.640625 529.887642,216.359375 L531.72358,216.359375 C531.489205,220.265625 531.41108,225.460938 531.41108,234.757812 L529.575142,234.757812 C528.44233,227.960938 527.81733,225.8125 525.551705,222.921875 C522.19233,218.585938 516.918892,216.671875 511.41108,216.671875 C500.981392,216.671875 494.106392,227.492188 494.106392,244.835938 C494.106392,262.6875 501.87983,272.53125 512.19233,272.53125 C516.997017,272.53125 522.856392,270.773438 525.864205,266.4375 C528.207955,263.3125 528.75483,260.265625 529.575142,253.78125 L531.41108,253.78125 C531.41108,263.46875 531.489205,268.9375 531.72358,273 L529.887642,273 C529.614205,269.71875 529.06733,268.273438 527.934517,268.273438 C527.50483,268.273438 526.957955,268.507812 526.293892,268.9375 C522.34858,271.710938 518.364205,274.132812 511.489205,274.132812 C496.293892,274.132812 486.137642,263.46875 486.137642,245.148438 C486.137642,227.257812 496.684517,215.226562 511.56733,215.226562 Z M558.832955,230.695312 C568.989205,230.695312 576.997017,237.0625 576.997017,252.453125 C576.997017,267.804688 568.989205,274.132812 558.832955,274.132812 C548.676705,274.132812 540.668892,267.804688 540.668892,252.453125 C540.668892,237.0625 548.676705,230.695312 558.832955,230.695312 Z M558.832955,232.296875 C552.778267,232.296875 548.44233,238.117188 548.44233,252.453125 C548.44233,266.75 552.778267,272.53125 558.832955,272.53125 C564.926705,272.53125 569.22358,266.75 569.22358,252.453125 C569.22358,238.117188 564.926705,232.296875 558.832955,232.296875 Z M609.965767,230.695312 C614.028267,230.695312 616.606392,231.789062 618.44233,233.703125 C620.434517,235.890625 621.215767,238.742188 621.215767,244.210938 L621.215767,265.578125 C621.215767,270.03125 622.895455,271.320312 627.309517,271.320312 L627.309517,273 C625.47358,272.921875 621.215767,272.6875 617.700142,272.6875 C614.184517,272.6875 610.434517,272.921875 608.75483,273 L608.75483,271.320312 C612.582955,271.320312 614.028267,270.03125 614.028267,265.578125 L614.028267,242.453125 C614.028267,237.492188 613.325142,233.234375 607.543892,233.234375 C600.825142,233.234375 596.332955,239.640625 596.332955,247.804688 L596.332955,265.578125 C596.332955,270.03125 597.778267,271.320312 601.645455,271.320312 L601.645455,273 C599.965767,272.921875 596.176705,272.6875 592.66108,272.6875 C589.145455,272.6875 584.887642,272.921875 583.051705,273 L583.051705,271.320312 C587.465767,271.320312 589.145455,270.03125 589.145455,265.578125 L589.145455,240.539062 C589.145455,235.734375 587.700142,233.46875 583.051705,233.46875 L583.051705,231.789062 C584.731392,231.945312 586.41108,232.023438 588.012642,232.023438 C591.137642,232.023438 594.028267,231.710938 596.332955,230.929688 L596.332955,240.34375 C599.145455,233.15625 604.497017,230.695312 609.965767,230.695312 Z M650.825142,230.695312 C654.184517,230.695312 657.543892,231.554688 660.122017,233.234375 C662.50483,234.835938 663.872017,236.984375 663.872017,239.40625 C663.872017,242.296875 662.03608,243.898438 659.653267,243.898438 C657.231392,243.898438 655.239205,242.453125 655.239205,239.875 C655.239205,237.492188 656.762642,235.96875 658.59858,235.460938 C657.543892,233.546875 654.457955,232.101562 651.41108,232.101562 C646.137642,232.101562 639.965767,236.59375 639.965767,251.710938 C639.965767,265.890625 645.31733,270.695312 651.489205,270.695312 C655.62983,270.695312 660.278267,268.507812 663.090767,262.453125 L664.614205,263 C663.012642,268.195312 658.44233,274.132812 649.887642,274.132812 C639.965767,274.132812 632.19233,266.125 632.19233,252.921875 C632.19233,239.796875 639.887642,230.695312 650.825142,230.695312 Z M702.81733,262.765625 L704.418892,263.390625 C702.66108,268.742188 697.387642,274.132812 689.457955,274.132812 C677.856392,274.132812 671.059517,265.65625 671.059517,253.390625 C671.059517,239.328125 678.168892,230.695312 689.145455,230.695312 C698.520455,230.695312 704.106392,236.203125 704.106392,248.273438 L679.106392,248.273438 C678.91108,249.796875 678.832955,251.632812 678.832955,253.390625 C678.832955,264.367188 684.926705,270.773438 691.059517,270.773438 C695.864205,270.773438 700.043892,268.742188 702.81733,262.765625 Z M688.832955,232.21875 C684.06733,232.21875 679.84858,236.671875 678.989205,246.75 L696.41108,246.75 C696.684517,238.9375 694.184517,232.21875 688.832955,232.21875 Z M735.707955,230.695312 C744.106392,230.695312 750.590767,237.648438 750.590767,250.539062 C750.590767,262.101562 745.278267,274.132812 732.270455,274.132812 C728.090767,274.132812 724.69233,272.296875 722.895455,269.796875 L722.895455,280.03125 C722.895455,284.601562 725.78608,285.8125 730.590767,285.8125 L730.590767,287.492188 C728.247017,287.414062 723.715767,287.140625 719.06733,287.140625 C715.707955,287.140625 712.114205,287.414062 710.434517,287.492188 L710.434517,285.8125 C714.262642,285.8125 715.707955,284.679688 715.707955,280.851562 L715.707955,240.539062 C715.707955,235.734375 714.262642,233.46875 709.614205,233.46875 L709.614205,231.789062 C711.293892,231.945312 712.97358,232.023438 714.575142,232.023438 C717.700142,232.023438 720.590767,231.710938 722.895455,230.929688 L722.895455,239.367188 C725.31733,233.820312 730.043892,230.695312 735.707955,230.695312 Z M731.372017,272.296875 C740.239205,272.296875 742.81733,263 742.81733,251.632812 C742.81733,238.9375 739.614205,233.078125 733.520455,233.078125 C728.872017,233.078125 724.614205,236.4375 722.895455,243.195312 L722.895455,267.140625 C724.37983,270.109375 727.153267,272.296875 731.372017,272.296875 Z M769.53608,231.867188 L781.372017,231.867188 L781.372017,233.46875 L769.53608,233.46875 L769.53608,264.445312 C769.53608,269.484375 771.450142,271.242188 774.653267,271.242188 C777.856392,271.242188 780.200142,268.9375 781.87983,262.6875 L783.44233,263.078125 C782.34858,269.328125 779.53608,274.132812 773.051705,274.132812 C769.37983,274.132812 767.231392,273.234375 765.47358,271.476562 C763.12983,269.09375 762.34858,265.96875 762.34858,260.265625 L762.34858,233.46875 L754.653267,233.46875 L754.653267,231.867188 L762.34858,231.867188 L762.34858,219.640625 C764.965767,219.5625 767.543892,219.25 769.53608,218.507812 L769.53608,231.867188 Z" id="Morrison-&amp;-Foerster" fill="#FFFFFF"></path>
                <g id="Group" transform="translate(657.712500, 175.000000)">
                    <g id="Line-2" stroke-linecap="square">
                        <use fill="black" fill-opacity="1" filter="url(#filter-2)" xlink:href="#path-1"></use>
                        <use stroke-opacity="0.426602129" stroke="#000000" stroke-width="1" xlink:href="#path-1"></use>
                    </g>
                    <polygon id="Path-2" fill="#30354C" points="0 209.027399 209.26493 0 209.26493 209.027399"></polygon>
                </g>
                <g id="Group" transform="translate(105.238636, 105.000000) scale(-1, -1) translate(-105.238636, -105.000000) translate(0.238636, 0.000000)">
                    <g id="Line-2" stroke-linecap="square">
                        <use fill="black" fill-opacity="1" filter="url(#filter-4)" xlink:href="#path-3"></use>
                        <use stroke-opacity="0.426602129" stroke="#000000" stroke-width="1" xlink:href="#path-3"></use>
                    </g>
                    <polygon id="Path-2" fill="#30354C" points="0 209.027399 209.26493 0 209.26493 209.027399"></polygon>
                </g>
            </g>
        </g>
    </g>
</svg>